<?xml version="1.0" encoding="UTF-8" standalone="no"?>
<svg
   width="256"
   height="256"
   xml:space="preserve"
   version="1.1"
   id="svg16"
   sodipodi:docname="default_blank.svg"
   inkscape:export-filename="default_naked.png"
   inkscape:export-xdpi="192"
   inkscape:export-ydpi="192"
   inkscape:version="1.4 (86a8ad7, 2024-10-11)"
   xmlns:inkscape="http://www.inkscape.org/namespaces/inkscape"
   xmlns:sodipodi="http://sodipodi.sourceforge.net/DTD/sodipodi-0.dtd"
   xmlns="http://www.w3.org/2000/svg"
   xmlns:svg="http://www.w3.org/2000/svg"><defs
   id="defs16" /><sodipodi:namedview
   id="namedview16"
   pagecolor="#ffffff"
   bordercolor="#000000"
   borderopacity="0.25"
   inkscape:showpageshadow="2"
   inkscape:pageopacity="0.0"
   inkscape:pagecheckerboard="0"
   inkscape:deskcolor="#d1d1d1"
   inkscape:export-bgcolor="#ffffff00"
   showguides="true"
   inkscape:zoom="3.1294999"
   inkscape:cx="108.16425"
   inkscape:cy="149.06535"
   inkscape:window-width="2560"
   inkscape:window-height="1351"
   inkscape:window-x="3191"
   inkscape:window-y="295"
   inkscape:window-maximized="1"
   inkscape:current-layer="svg16"><sodipodi:guide
     position="-46.013741,127.86451"
     orientation="0,-1"
     id="guide17"
     inkscape:locked="false" /><sodipodi:guide
     position="128.13549,271.97699"
     orientation="1,0"
     id="guide18"
     inkscape:locked="false" /></sodipodi:namedview>
  
  <g
   style="display:inline;fill:#f2f7f8;fill-opacity:1"
   id="g2"
   inkscape:label="g2"
   transform="matrix(1,0,0,0.95726428,0,26.758531)">
    <path
   style="display:inline;fill:#222222;fill-opacity:1;stroke-width:0.357429"
   d="m 141.35953,256.95429 c -5.32489,0.99847 -3.27242,0.77113 -8.64223,1.35809 -4.69722,0.51343 -7.33282,0.44054 -10.90289,-3.46525 -3.30145,-3.61192 -5.23407,-7.04369 -6.12777,-8.8235 -1.74778,-3.48071 -3.9652,-10.36354 -4.58135,-11.6524 -0.9082,-1.89977 -0.40679,-4.41434 -5.8284,-7.30337 l -14.668224,-6.22607 -4.521987,-3.42484 c -8.145656,-6.16931 -12.556988,-15.12612 -17.554446,-24.99218 -1.542182,-3.0446 -2.129144,-5.97574 -3.429353,-17.12534 -0.689518,-5.91277 -0.637016,-6.82694 1.166051,-20.30323 0.701563,-5.24354 1.355735,-10.32817 1.453717,-11.2992 0.165909,-1.64421 -0.06388,-2.287 -3.345079,-9.35714 -4.018116,-8.65798 -8.842804,-21.91775 -9.926073,-27.27996 -1.269671,-6.28492 -3.261332,-19.424768 -3.262301,-21.522831 -0.0015,-2.982395 1.129009,-5.59475 3.186525,-7.3641 2.129991,-1.83168 3.728019,-3.693016 6.706448,-3.179088 l 1.360869,0.234816 19.720898,7.93432 c 10.870658,4.373596 20.257295,8.87842 21.186505,9.269412 l 1.68947,0.710895 5.90858,-2.67401 c 8.28394,-3.74902 7.93262,-3.631044 15.99572,-5.371431 16.53003,-3.567937 18.42147,-3.738772 33.51115,-3.026756 6.22896,0.293916 7.05761,0.416332 11.93977,1.763832 8.59848,2.373225 12.86692,3.824644 19.46126,6.617497 5.91736,2.506139 6.31787,2.625017 7.41713,2.201508 2.85843,-1.10126 21.93323,-9.276939 30.53984,-13.089732 11.46392,-5.078589 12.48676,-5.300145 16.00945,-3.467775 2.70981,1.409534 4.46001,3.314063 5.47251,5.955041 0.71259,1.858725 0.73226,2.234361 0.35275,6.736914 -1.093,12.967338 -4.50178,25.920098 -10.59386,40.254958 -1.19675,2.81596 -2.70151,6.15277 -3.34391,7.41509 -2.40773,4.73128 -2.51347,5.22377 -1.87196,8.71927 0.31387,1.71026 0.85557,5.89023 1.20376,9.28882 0.80138,7.82206 0.90905,24.85967 0.1774,28.07144 -2.60706,11.44428 -6.05054,20.02182 -13.63775,27.55446 -2.11558,2.10037 -5.5903,4.4556 -6.97841,6.04087 -1.19131,1.36052 -5.1434,3.3113 -6.45307,4.58762 -2.8073,2.73583 -13.57373,6.77587 -15.08884,10.03056 -2.92376,6.28071 -7.07411,16.70019 -8.67779,20.21098 -1.54376,3.37961 -4.5045,6.3459 -6.99326,7.4646 -4.78059,2.14887 -10.38138,-0.83341 -15.86998,-1.24377 -3.6893,-1.13355 -7.43138,-1.43445 -11.90157,-1.64914 -7.23278,-0.34736 -4.37225,0.31625 -10.2593,1.42012 z"
   transform="translate(-22.758992,-57.157798)"
   id="path2"
   sodipodi:nodetypes="sssssccssssssscsscsscssssssssssssssssssssscss" />
  </g>
  <g
   style="display:inline;fill:#3e4b51;fill-opacity:1"
   id="g5"
   transform="translate(0,26)">
    <path
   style="fill:#3e4b51;fill-opacity:1;stroke-width:0.363849"
   d="m 61.522626,84.17763 c -0.339196,0.684131 -0.565327,1.390333 -0.452263,2.405493 0.113061,1.015164 0.452263,6.664759 0.678395,7.415095 0.226131,0.750338 1.085435,6.179242 1.311566,6.841312 0.226134,0.66206 1.605539,7.03992 1.899515,7.76819 0.293971,0.72826 2.261319,7.32682 2.600519,8.16543 0.339196,0.83862 2.962329,7.30475 3.278915,7.79027 0.316587,0.48551 1.628153,2.91306 1.989967,3.17788 0.36181,0.26484 2.419613,-2.51582 2.577905,-3.0234 0.158293,-0.50759 -1.243727,-3.83997 -1.741217,-4.9434 -0.497492,-1.10343 -2.939719,-9.15852 -3.256304,-9.93093 -0.316586,-0.77241 -1.46986,-4.98754 -1.650766,-5.95856 -0.180905,-0.97103 -0.881914,-3.02342 -0.927144,-3.81789 -0.04523,-0.794477 -0.02261,-1.58895 0.226132,-2.052394 0.248747,-0.463444 0.452269,-0.882749 0.994986,-1.081365 0.542714,-0.198621 5.788982,-0.06621 6.218634,-0.08828 C 75.701116,96.823001 61.95228,84.11142 61.95228,84.11142 m 179.80237,0.583509 c 0.19188,0.358911 0.57564,1.60731 0.51167,2.668447 -0.0639,1.061137 -1.48868,10.474803 -1.62434,11.313411 -0.13573,0.838614 -3.66336,14.123993 -3.93471,15.227423 -0.27136,1.10344 -2.75882,7.54752 -3.21108,8.60681 -0.45226,1.05931 -1.53771,3.61928 -2.48745,4.45788 -0.94976,0.83862 -0.94976,1.50068 -1.44726,0.66207 -0.49748,-0.8386 -1.53769,-2.51584 -1.26634,-3.35445 0.27137,-0.83861 2.93974,-7.63578 3.30154,-8.91576 0.3618,-1.28 1.89951,-6.7089 2.2161,-7.85648 0.31658,-1.14757 1.58292,-6.1351 1.62815,-7.062 0.0453,-0.926879 0.27135,-3.486853 -0.49748,-3.530989 -0.76886,-0.04414 -5.65332,0.04414 -6.37694,-0.176551 -0.72363,-0.220687 2.44223,-4.590297 2.62314,-4.766844 0.18089,-0.176552 8.54779,-6.620621 8.54779,-6.620621 m -13.8619,58.636615 c -1.44725,0.13246 -2.48746,0.2869 -3.27893,0.77241 -0.79145,0.48553 -1.96734,1.36827 -2.69097,1.89791 -0.72362,0.52966 -0.92714,0.79448 -1.13066,1.23586 -0.20351,0.44137 3.18846,-1.61102 3.59551,-1.74342 0.40704,-0.13247 1.15327,-0.64001 2.12563,-0.50759 0.97237,0.13245 1.13067,0.44137 1.62817,0.48551 0.49748,0.0441 1.28894,-0.88274 0.83669,-1.39033 -0.45229,-0.50758 -0.45229,-0.48551 -0.45229,-0.48551 m -148.876958,-0.0731 c 1.447251,0.13245 2.487454,0.28688 3.278928,0.77239 0.791459,0.48553 1.967344,1.36826 2.690969,1.89792 0.723626,0.52965 0.927142,0.79448 1.13066,1.23584 0.203516,0.44137 -3.188459,-1.61101 -3.595506,-1.74341 -0.407033,-0.13246 -1.153266,-0.64 -2.125635,-0.50759 -0.972369,0.13246 -1.130658,0.44137 -1.62816,0.4855 -0.497487,0.0441 -1.288947,-0.88273 -0.836686,-1.39032 0.452274,-0.50759 0.452274,-0.4855 0.452274,-0.4855 m -1.507571,29.67086 c 0.09594,0.92068 0.111934,2.59042 0.19188,3.1522 0.07995,0.56178 1.119297,6.913 1.630977,8.91042 0.511677,1.99744 2.94215,7.11587 3.581752,8.36426 0.639599,1.2484 3.581748,5.92989 4.733027,6.99102 1.151277,1.06114 4.157393,3.99486 5.628467,4.80632 1.471075,0.81145 7.291423,5.056 8.37874,5.43052 1.087322,0.37452 3.134032,1.68535 4.093432,1.62293 0.9594,-0.0625 0.6396,-0.99873 -0.70355,-2.87132 -1.34316,-1.8726 -3.389882,-4.43181 -3.389882,-5.30568 0,-0.87388 0.510162,-2.15007 1.211172,-2.30455 0.70101,-0.15448 1.78645,-0.11031 2.44223,0.52965 0.65578,0.63999 1.74122,2.31722 2.2161,2.95721 0.47487,0.64 3.79901,5.3627 4.38696,6.3558 0.58795,0.99309 3.45983,6.15718 4.04777,7.72405 0.58794,1.56688 3.03018,7.8344 3.48244,8.76129 0.45226,0.92688 4.91908,10.55713 5.87848,11.80551 0.9594,1.2484 1.9188,2.74648 3.64571,3.80762 1.72692,1.06113 3.51779,1.74775 6.26807,1.24839 2.75027,-0.49935 9.53001,-1.81017 10.48941,-2.18469 0.9594,-0.37452 2.43048,-6.86618 1.85484,-7.42796 -0.57563,-0.56178 -10.29754,1.74775 -12.53613,0.87388 -2.23859,-0.87388 -5.56451,-5.86746 -6.84371,-8.30184 -1.27919,-2.43437 -9.59398,-18.28901 -9.59398,-18.28901 0,0 -0.0672,0.59243 -0.81346,1.1 -0.74624,0.50758 -1.92212,1.52275 -2.7362,1.10343 -0.81407,-0.41929 -2.46484,-2.11859 -3.14324,-3.7296 -0.67839,-1.61102 -5.67592,-8.71715 -6.19602,-9.35716 -0.52011,-0.63998 -1.24373,-1.43446 -1.06282,-2.251 0.18091,-0.81654 0.65578,-2.1186 1.28895,-2.1848 0.63317,-0.0661 1.5377,-0.24276 1.92213,-0.35309 0.38442,-0.11032 -4.47743,-1.19171 -4.47743,-1.19171 0,0 -3.663337,0.41929 -4.273893,1.23584 -0.610558,0.81654 -1.424635,1.03724 -2.555294,-0.59586 -1.130662,-1.63308 -11.464903,-14.38881 -12.143304,-15.18329 -0.678395,-0.79447 -5.291493,-5.03167 -5.83421,-5.07581 l -0.542717,-0.0441 m 152.204758,-2.0612 c 0.10761,1.27377 0.26491,4.57942 0.18495,5.14119 -0.0799,0.56178 -1.1193,6.913 -1.63097,8.91043 -0.51168,1.99743 -2.94214,7.11587 -3.58175,8.36425 -0.6396,1.2484 -3.58175,5.92989 -4.73302,6.99102 -1.1513,1.06115 -4.15741,3.99486 -5.62848,4.80632 -1.47108,0.81147 -7.29143,5.05601 -8.37874,5.43053 -1.08732,0.37451 -3.13403,1.68534 -4.09344,1.62291 -0.9594,-0.0625 -0.63959,-0.99871 0.70357,-2.8713 1.34315,-1.8726 3.38987,-4.4318 3.38987,-5.30569 0,-0.87387 -0.51017,-2.15007 -1.21117,-2.30454 -0.70101,-0.15449 -1.78645,-0.11032 -2.44223,0.52964 -0.65579,0.64001 -1.74122,2.31722 -2.2161,2.95721 -0.47487,0.64 -3.79901,5.3627 -4.38697,6.3558 -0.58794,0.99309 -3.45983,6.15718 -4.04776,7.72404 -0.58795,1.56689 -3.03018,7.83441 -3.48244,8.76131 -0.45225,0.92688 -4.91908,10.55712 -5.87848,11.80551 -0.9594,1.2484 -1.9188,2.74647 -3.64572,3.80761 -1.72691,1.06113 -3.51778,1.74775 -6.26805,1.24839 -2.75028,-0.49935 -9.53002,-1.81017 -10.48942,-2.18468 -0.95939,-0.37452 -2.43048,-6.86618 -1.85484,-7.42796 0.57565,-0.56178 10.29754,1.74776 12.53614,0.87387 2.23858,-0.87387 5.5645,-5.86746 6.84371,-8.30184 1.27919,-2.43436 9.59397,-18.28901 9.59397,-18.28901 0,0 0.0672,0.59244 0.81346,1.1 0.74624,0.50759 1.92212,1.52275 2.7362,1.10344 0.81408,-0.41929 2.46484,-2.11859 3.14323,-3.72962 0.6784,-1.61101 5.67593,-8.71714 6.19604,-9.35713 0.52009,-0.63999 1.24371,-1.43447 1.06281,-2.25102 -0.1809,-0.81653 -0.65578,-2.1186 -1.28895,-2.1848 -0.63317,-0.0661 -1.5377,-0.24275 -1.92212,-0.35309 -0.38442,-0.11032 4.47741,-1.19172 4.47741,-1.19172 0,0 3.66335,0.4193 4.2739,1.23586 0.61056,0.81654 1.42463,1.03723 2.55529,-0.59587 1.13067,-1.63309 11.284,-15.0288 11.9624,-15.82327 0.6784,-0.79448 4.72594,-4.88192 5.15582,-5.20823 l 0.81408,-0.61795"
   transform="translate(-22.758992,-57.157798)"
   id="path3" />
    <path
   style="fill:#3e4b51;fill-opacity:1;stroke-width:0.508255"
   d="m 140.96289,206.23335 c 0.15828,0.73207 0.45226,1.89476 1.22111,2.23925 0.76885,0.34451 4.25583,1.44793 5.88398,1.62017 1.62816,0.17232 7.36965,0.26709 8.63371,0.18846 1.05294,-0.0655 3.89657,-0.96871 4.21315,-1.05484 0.31659,-0.0862 1.12517,-1.37075 1.46437,-2.36117 0.33921,-0.99045 -20.94145,-0.89026 -20.94145,-0.89026"
   transform="translate(-22.758992,-57.157798)"
   id="path4" />
    <path
   style="fill:#666666;fill-opacity:1;stroke-width:0.363849"
   d="m 81.759071,101.22058 c 1.598998,1.935 0.127915,2.02864 2.654336,4.71268 2.52641,2.68406 8.858437,7.95853 9.625957,8.08337 0.767517,0.12483 3.19799,-2.1847 2.686314,-2.71525 -0.511679,-0.53058 -13.14375,-10.45533 -13.14375,-10.45533 m 137.871622,0.37453 c -1.59899,1.935 -0.12792,2.02864 -2.65433,4.71268 -2.5264,2.68406 -8.85844,7.95853 -9.62596,8.08337 -0.76751,0.12483 -3.19799,-2.1847 -2.68631,-2.71525 0.51168,-0.53058 13.14375,-10.45533 13.14375,-10.45533"
   transform="translate(-22.758992,-57.157798)"
   id="path5" />
  </g>
  <g
   style="display:inline;fill:#9da6ad;fill-opacity:1"
   id="g7"
   transform="translate(0,26)">
    <path
   style="fill:#9da6ad;fill-opacity:1;stroke-width:0.363849"
   d="m 65.932205,88.03966 c 0.135682,0.176547 5.427175,4.987532 6.060342,5.826144 0.633171,0.838612 5.4724,4.987535 6.015117,5.384773 0.542718,0.397235 2.44223,1.721363 3.165851,1.986183 0.723626,0.26483 2.125646,0.75033 2.758817,1.01516 0.633167,0.26483 11.170931,9.88679 11.397064,10.01921 0.226132,0.13241 -3.889476,5.34064 -4.34174,6.09096 -0.452265,0.75034 -2.984945,4.4579 -2.984945,4.76685 0,0.30897 1.989964,1.50067 2.623134,1.85379 0.633168,0.35309 4.206057,1.98617 4.929683,2.86893 0.723621,0.88273 1.130659,1.19171 1.221113,2.55997 0.09046,1.36826 0.226132,2.16273 -0.407038,2.91307 -0.633173,0.75035 -1.854286,2.29515 -3.165853,2.51584 -1.311566,0.22069 -2.53268,0.39723 -3.482436,-0.0441 -0.949753,-0.44137 -1.989964,-1.10344 -2.442226,-1.94205 -0.452266,-0.83862 -0.859304,-2.86893 -1.311568,-3.61927 -0.452264,-0.75034 -1.402021,-1.94206 -1.944738,-2.03033 -0.542718,-0.0884 -1.040206,-0.17655 -1.447246,0.92689 -0.407039,1.10344 -3.708568,6.84132 -3.708568,7.4151 0,0.57379 -0.226132,0.66205 0.587945,1.27998 0.814075,0.61793 4.251284,1.80964 4.929683,2.47169 0.678397,0.66206 2.261319,1.98619 2.713585,2.60411 0.452267,0.61793 2.397001,2.73653 3.120625,3.35446 0.723625,0.61792 3.030174,2.51583 3.844248,2.86892 0.814077,0.3531 1.628152,0.79449 2.125644,0.79449 0.497489,0 3.373217,-0.73977 4.748782,-1.01516 2.39853,-0.48018 4.92618,-0.42198 6.46388,-0.46612 1.5377,-0.0441 2.58141,0.59852 2.71708,-0.19599 0.13569,-0.79449 -0.13568,-2.3393 -0.81408,-3.79583 -0.67839,-1.45654 -1.8995,-4.19306 -1.98996,-5.03168 -0.0905,-0.83862 -0.0452,-2.71444 0.40705,-3.19996 0.45226,-0.48553 1.51508,-1.39034 2.60051,-1.36826 1.08544,0.022 2.39701,0.11031 2.91711,1.10343 0.52011,0.9931 3.97993,10.79161 4.20606,11.91712 0.22613,1.12549 -0.0226,2.09654 0.3392,2.58204 0.36181,0.48551 2.76906,1.1964 4.72616,2.29514 3.22382,1.80992 6.18887,3.98271 7.10056,5.14202 2.49246,3.16944 4.20802,4.90681 4.92968,6.81925 1.46187,3.87405 2.11668,5.29649 2.80404,10.72539 0.68362,5.39933 2.93971,24.23148 3.0754,26.35007 0.13568,2.1186 0.34187,3.99184 0.66167,4.5224 0.3198,0.53058 5.98025,1.12356 7.77113,1.12356 1.79087,0 13.07979,0.31211 13.43156,-0.34332 0.35178,-0.65539 0.57563,-2.49678 0.6396,-3.08977 0.0639,-0.59299 1.37514,-10.11201 1.50306,-10.95467 0.12792,-0.84267 0.97497,-10.56377 1.59899,-15.60494 0.56431,-4.55874 0.55829,-5.97446 1.53503,-9.4254 1.08492,-3.83313 2.78647,-5.71924 4.66908,-7.86489 3.56599,-4.06423 3.81472,-4.11731 6.77975,-6.17956 2.41679,-1.68095 6.47828,-3.16219 6.7044,-3.2946 0.22614,-0.13246 1.0176,-4.34753 1.22114,-4.78891 0.20351,-0.44137 1.58291,-4.54616 1.80905,-5.20822 0.22612,-0.66206 0.74623,-2.36135 0.94975,-2.69238 0.20351,-0.33103 0.81244,-2.18006 1.42005,-2.53897 0.60763,-0.35893 1.63098,-0.9363 2.47844,-0.76465 0.84748,0.17165 1.47109,0.3277 1.99876,0.88948 0.52766,0.56177 0.95939,1.93502 0.76751,2.71525 -0.19188,0.78026 -1.69493,5.05601 -1.82285,5.50856 -0.12793,0.45254 -0.91143,3.35506 -1.00736,3.83883 -0.096,0.48374 -0.14393,0.92068 -0.11193,1.01431 0.032,0.0936 3.39798,-0.42581 6.60385,-0.10923 2.7616,0.27271 5.27669,1.31082 6.0762,1.43566 0.79949,0.12484 2.43048,-0.34332 3.93353,-1.27961 1.50305,-0.93631 3.93352,-2.62164 5.46856,-4.49424 1.53504,-1.87258 2.78225,-3.46428 3.58174,-3.87002 0.79951,-0.40572 2.49445,-1.06113 3.32593,-1.46686 0.83148,-0.40574 1.85482,-0.65541 2.01473,-1.34202 0.1599,-0.68663 -0.032,-1.12357 -0.54367,-1.90381 -0.51167,-0.78024 -3.26194,-7.11586 -3.64569,-7.27191 -0.38376,-0.15605 -1.1513,-0.43695 -1.50306,0.0624 -0.35178,0.49935 -0.78352,0.56177 -1.07133,1.24838 -0.28782,0.68663 -1.1193,2.54361 -1.29519,3.01178 -0.1759,0.46814 -0.75153,1.87258 -1.19925,2.2471 -0.44771,0.37451 -0.59163,0.60858 -1.18326,0.76464 -0.59163,0.15605 -1.55102,0.37453 -2.41448,0.28089 -0.86346,-0.0936 -1.82286,-0.24969 -2.19062,-0.45256 -0.36777,-0.20285 -1.45509,-1.01431 -1.72691,-1.49806 -0.27185,-0.48375 -0.75154,-0.88948 -0.76752,-1.56049 -0.016,-0.67102 -0.33579,-3.01176 0.048,-3.40189 0.38376,-0.39012 1.98275,-1.62291 2.75028,-1.99743 0.76751,-0.37451 3.98148,-1.99743 4.41323,-2.29393 0.43172,-0.2965 1.32716,-0.85828 1.39112,-1.20157 0.064,-0.34331 -1.4391,-2.98055 -1.66296,-3.26146 -0.22385,-0.28087 -3.30992,-4.57223 -3.51779,-4.86873 -0.20788,-0.29649 -2.25458,-2.93373 -2.31855,-3.12099 -0.064,-0.18726 4.25333,-4.05729 5.08481,-4.65027 0.83149,-0.59299 5.94828,-4.7127 6.33203,-4.96238 0.38376,-0.24967 0.4797,-0.74904 1.05534,-0.78025 0.57563,-0.0311 1.91878,-0.65541 2.81423,-1.15476 0.89543,-0.49936 4.15738,-3.214621 4.98887,-4.213338 0.83148,-0.99872 8.41072,-6.959809 8.82645,-7.459168 0.41575,-0.49936 1.05535,-1.778965 1.08733,-1.966224 0.032,-0.187259 -37.19453,18.00717 -37.19453,18.00717 0,0 -1.83167,2.69238 -1.8769,2.86892 -0.0453,0.17655 -1.28894,2.38343 -1.65076,2.7586 -0.36181,0.37517 -1.62815,1.32413 -1.83166,1.36827 -0.20352,0.0441 -1.19851,0.19861 -1.80907,-0.11035 -0.61055,-0.30896 -1.04021,-0.50757 -1.24372,-0.63998 -0.20352,-0.13243 -1.08543,-1.01517 -1.19851,-1.27999 -0.11303,-0.26483 -0.54272,-1.08137 -1.06281,-1.27999 -0.52011,-0.19862 -1.46987,-0.17655 -1.74122,-0.11035 -0.27137,0.0661 -7.98247,2.84686 -8.25382,3.39858 -0.27137,0.55172 -5.22367,10.65919 -5.60809,10.70335 -0.38443,0.0441 -1.31157,0 -1.74121,0.19861 -0.42966,0.19861 -0.52011,0.37517 -0.88193,0.63999 -0.36181,0.26483 -6.55783,4.59031 -7.12316,4.92133 -0.56532,0.33104 -4.99752,1.0593 -5.87944,1.08136 -0.8819,0.022 -18.24887,-0.11031 -18.70113,-0.33102 -0.45226,-0.22069 -2.69098,-1.10345 -3.2563,-1.54481 -0.56533,-0.44137 -5.38195,-4.43582 -5.76638,-4.5241 -0.38443,-0.0884 -2.08041,0.13246 -2.28393,-0.19861 -0.20352,-0.33103 -3.39198,-7.03993 -3.68596,-7.50337 -0.29397,-0.46345 -1.80906,-3.55306 -2.30654,-3.72962 -0.4975,-0.17655 -8.18599,-3.53099 -8.63826,-3.35445 -0.45226,0.17655 -1.5377,1.01516 -2.19348,1.69929 -0.65579,0.68413 -1.49247,1.91999 -2.32916,1.94205 -0.8367,0.022 -1.97536,0.18525 -2.32917,-0.13242 -2.26132,-2.03032 -3.39198,-6.2013 -3.57289,-6.4882"
   transform="translate(-22.758992,-57.157798)"
   id="path6" />
    <path
   style="fill:#9da6ad;fill-opacity:1;stroke-width:0.363849"
   d="m 79.409686,162.98508 c 1.447245,1.19172 3.957315,3.26618 4.138222,3.42064 0.180902,0.1545 6.060342,4.61237 6.354313,4.76686 0.293971,0.15448 2.283935,1.0593 2.408309,1.18067 0.124365,0.12146 0.395732,0.61794 0.508796,0.97103 0.113061,0.35309 0.712318,2.63721 0.847995,2.94618 0.135683,0.30896 1.752528,3.42066 2.069109,3.86202 0.316587,0.44137 2.758817,3.29928 3.199773,3.65238 0.440958,0.35309 5.272787,3.69987 6.008317,4.01199 0.73554,0.31209 6.01223,1.06113 7.22747,1.21717 1.21523,0.15605 5.94826,-0.28088 6.71578,-0.46815 0.76752,-0.18725 6.97162,-1.56049 7.4833,-1.62291 0.51168,-0.0624 1.98276,1.93502 1.95078,2.30953 -0.032,0.37453 2.46246,7.70885 2.59038,8.02096 0.12791,0.31209 4.89292,13.45146 5.21272,13.91961 0.3198,0.46815 5.82035,10.17443 6.10817,10.54895 0.28782,0.37452 0.63959,1.49807 1.50306,1.87259 0.86346,0.37452 5.4046,0.18726 5.59648,0.18726 0.19188,0 9.62596,0.15606 10.3615,-0.0625 0.73554,-0.21846 2.97413,-4.0885 3.22997,-4.40059 0.25584,-0.31211 4.09342,-7.2407 4.31729,-7.77127 0.22386,-0.53057 2.94216,-7.74006 3.00611,-8.08336 0.0639,-0.3433 4.09343,-11.67251 4.28531,-12.35913 0.19188,-0.68662 1.24722,-3.58914 1.56702,-3.77639 0.3198,-0.18726 1.63097,-0.34332 2.30255,0.0312 0.67158,0.37451 4.12541,0.9363 4.34927,1.02993 0.22387,0.0936 4.79699,0.81146 5.66045,0.81146 0.86345,0 4.76501,-0.21848 5.82034,-0.34331 1.05534,-0.12485 3.86957,-0.65541 4.3173,-0.74903 0.44772,-0.0936 4.18936,-2.37196 4.44521,-2.62164 0.25584,-0.24969 3.74166,-3.87003 4.66908,-4.99358 0.9274,-1.12356 2.6988,-6.34188 2.82318,-6.78325 0.12431,-0.44138 0.29397,-0.94896 0.46357,-1.03723 0.1696,-0.0884 4.16083,-2.62618 4.90707,-3.17789 0.74623,-0.55173 3.18845,-2.14067 3.59551,-2.58206 0.40703,-0.44136 1.41332,-1.24688 1.61684,-1.35722 0.20351,-0.11031 2.26131,-1.68826 2.397,-1.75446 0.13572,-0.0662 1.23241,-0.84965 1.76383,-0.88276 0.5314,-0.0331 1.40201,0.11031 1.74122,0.49656 0.3392,0.3862 0.82538,2.12964 0.82538,2.53789 0,0.40828 0.42947,5.92647 0.42947,6.20737 0,0.28088 -1.02335,0.87387 -1.75888,1.77897 -0.73555,0.90508 -5.05284,5.11841 -5.72442,6.17955 -0.67157,1.06113 -4.70104,6.49166 -5.59647,8.14578 -0.89545,1.65413 -2.36653,4.05729 -3.42187,5.30569 -1.05533,1.2484 -2.46244,2.74647 -3.35789,3.58914 -0.89543,0.84266 -1.24721,1.21719 -1.40711,0.46814 -0.15991,-0.74903 0.064,-1.84138 -1.72691,-2.21589 -1.79088,-0.37452 -4.50917,-0.31212 -5.66045,-0.12485 -1.15129,0.18726 -2.46245,-0.18728 -3.45384,0.53056 -0.99137,0.71783 -2.68631,3.12098 -3.22997,4.18213 -0.54366,1.06113 -5.43659,10.42411 -5.82035,11.67251 -0.38375,1.24838 -5.8843,12.45274 -6.49192,13.63872 -0.60762,1.18598 -2.11067,4.30697 -2.5584,5.39932 -0.44772,1.09233 -1.50306,3.43308 -2.17463,4.40058 -0.67158,0.96752 -1.15127,2.1847 -2.7183,2.7777 -1.56701,0.59298 -1.82285,0.81144 -3.93353,0.74903 -2.11067,-0.0625 -7.99497,-0.46816 -9.59397,-0.99872 -1.599,-0.53057 -1.40711,-1.2484 -2.52642,-1.49807 -1.1193,-0.24969 -9.59398,-0.53057 -10.23357,-0.0625 -0.63959,0.46814 -0.1599,0.71783 -1.1193,1.09234 -0.95941,0.37453 -10.2016,1.59171 -11.00109,1.52928 -0.7995,-0.0624 -2.20662,-0.0624 -3.13404,-0.43693 -0.92742,-0.37451 -2.30256,-1.02993 -2.75028,-1.81018 -0.44771,-0.78025 -5.82034,-11.61008 -6.30004,-12.57759 -0.4797,-0.96749 -5.85232,-11.9534 -6.17213,-12.9521 -0.31979,-0.99872 -3.29393,-6.67892 -3.64571,-7.42796 -0.35178,-0.74904 -3.77363,-7.2407 -4.82897,-7.61522 -1.05533,-0.37452 -6.07619,-1.12355 -6.93964,-0.96752 -0.86346,0.15606 -2.302558,0.0936 -3.229977,0.9051 -0.927417,0.81145 -1.247216,1.8726 -1.215235,2.2159 0.03198,0.34331 -2.206617,-1.93502 -2.494434,-2.43437 -0.287821,-0.49936 -3.006115,-2.93373 -3.453835,-3.62034 -0.447718,-0.68662 -2.334532,-3.58914 -3.038091,-4.74391 -0.703559,-1.15476 -3.006116,-4.55664 -3.549772,-5.27447 -0.54366,-0.71783 -3.485813,-4.18214 -4.061451,-4.68149 -0.575637,-0.49935 -1.439098,-1.37324 -2.302555,-1.81018 -0.863457,-0.43693 -1.886814,-1.02992 -2.046713,-1.06113 -0.159903,-0.0312 -0.06397,-2.30953 -0.03198,-2.90252 0.03198,-0.59298 0.127915,-5.11844 0.351777,-5.99231 0.22386,-0.87388 0.575641,-2.09107 0.863459,-2.37195 0.28782,-0.28089 1.055336,-0.74904 1.503054,-0.68661 0.44772,0.0624 0.9594,0.31208 1.168408,0.53067 z m 46.583244,-61.26281 c 1.31157,0.92689 2.57791,1.41241 3.57289,2.51583 0.99498,1.10345 1.85429,1.89792 2.84927,4.28135 0.99498,2.38342 2.89449,6.39992 3.43721,7.63577 0.54271,1.23586 1.08543,3.79583 2.30655,4.67858 1.22111,0.88275 2.80404,2.03032 5.29149,2.29514 2.48745,0.26484 16.64334,0.13245 17.4574,-0.17654 0.81408,-0.30897 2.98494,-0.61793 4.02516,-2.20688 1.04021,-1.58895 2.17087,-3.35444 2.84926,-5.0758 0.6784,-1.72137 2.53268,-5.51719 3.12064,-6.97373 0.58794,-1.45653 1.58292,-3.00134 2.44222,-3.79582 0.8593,-0.79448 3.12061,-2.60411 3.84424,-3.13376 0.72363,-0.52965 -8.77393,-3.928231 -11.17093,-4.457881 -2.397,-0.529649 -16.779,-1.235851 -19.4926,-1.147575 -2.71357,0.08828 -9.31664,0.838612 -10.85435,1.324123 -1.53769,0.485514 -8.9096,2.957203 -8.9096,2.957203"
   transform="translate(-22.758992,-57.157798)"
   id="path7" />
  </g>
  <g
   style="display:inline;fill:#fcfdfe;fill-opacity:1"
   id="g12"
   transform="translate(0,26)">
    <path
   style="display:inline;fill:#fcfdfe;fill-opacity:1;stroke-width:0.363849"
   d="m 62.087958,83.979013 c 0.949757,0.308962 43.010352,19.729447 43.281712,20.038407 0.27136,0.30897 0.24643,2.60247 0.24643,2.60247 0,0 0.12792,1.87259 0.30381,2.18469 0.17588,0.3121 0.27183,1.01433 0.65559,1.40445 0.38375,0.39011 0.71954,1.06113 1.07132,1.12355 0.35178,0.0625 1.69494,0.12484 2.0627,-0.078 0.36778,-0.20286 1.85485,-1.73215 2.09469,-2.05985 0.23985,-0.32771 1.69495,-1.95062 2.73429,-1.76336 1.03935,0.18726 8.9064,2.94933 9.51402,3.60474 0.60762,0.65541 5.22872,10.90787 5.51654,11.21997 0.28783,0.3121 0.7995,-0.40573 1.40712,-0.0625 0.60762,0.34331 6.20411,4.96239 7.99499,5.77383 1.79087,0.81146 7.29141,0.68661 7.29141,0.68661 0,0 15.958,0.53057 17.10927,-0.0312 1.15127,-0.56178 3.86957,-2.02863 5.46857,-3.4643 1.599,-1.43564 2.52642,-2.77768 3.03809,-2.74646 0.51167,0.0312 1.63097,0.43693 1.95077,-0.12484 0.3198,-0.56178 4.89294,-10.79863 5.50055,-11.07953 0.60761,-0.28089 8.7625,-3.71397 9.49804,-3.71397 0.73555,0 1.4391,0.46814 1.95077,0.93629 0.51168,0.46815 1.63098,2.09107 2.11068,2.40317 0.4797,0.31209 0.9594,0.68662 1.53504,0.65541 0.57563,-0.0311 1.15127,0.21847 1.63096,-0.24969 0.47972,-0.46815 1.34318,-1.37323 1.53505,-1.96623 0.19188,-0.59298 -0.12792,-4.93115 0.0639,-5.0872 0.19187,-0.15606 42.30945,-19.662241 43.1729,-19.849499 0.86346,-0.187261 0.76751,-0.12485 0.99138,0.312096 0.22386,0.436938 -0.76753,0.936298 -1.7589,1.622916 -0.99138,0.686619 -3.80562,2.652843 -5.91629,3.682769 -2.11067,1.029925 -22.38594,10.330478 -23.15346,10.798628 -0.76753,0.46815 -9.72189,4.30696 -9.81783,4.52543 -0.096,0.21847 0.83146,0.49936 1.63097,1.40445 0.79949,0.90508 5.75639,6.02351 6.30005,6.86617 0.54366,0.84267 5.11679,6.99103 5.72441,8.39548 0.60762,1.40444 1.15126,1.49807 0.44771,1.8726 -0.70355,0.37452 -0.70355,-0.0625 -1.43909,-1.09234 -0.73555,-1.02994 -6.364,-8.05217 -7.06756,-8.73879 -0.70356,-0.68663 -6.07619,-6.33561 -6.65182,-6.49166 -0.57565,-0.15605 -0.6716,0.40573 -1.08733,1.15476 -0.41574,0.74904 -0.79951,1.68533 -1.2792,2.24712 -0.4797,0.56177 -0.7995,0.9675 -1.4391,1.18597 -0.63959,0.21847 -1.29518,0.40573 -2.15863,0.21847 -0.86346,-0.18726 -1.91881,-0.6242 -2.28658,-1.06114 -0.36776,-0.43694 -0.67158,-1.21718 -1.24721,-1.66972 -0.57564,-0.45255 -0.84748,-0.79585 -1.83884,-0.57738 -0.99139,0.21846 -7.78711,2.76207 -8.13889,3.21461 -0.35179,0.45254 -5.18076,10.33047 -5.56452,10.67379 -0.38375,0.34329 -1.59899,0.28088 -1.98275,0.37453 -0.38376,0.0936 -4.38126,3.33946 -4.79699,3.74517 -0.41574,0.40573 -2.7183,1.90382 -4.22135,2.1847 -1.50306,0.2809 -3.07007,0.59298 -4.60512,0.59298 -1.53503,0 -18.16459,-0.18725 -18.80419,-0.18725 -0.6396,0 -3.00611,-1.02993 -3.93353,-1.74775 -0.92742,-0.71782 -5.02084,-4.36939 -5.69242,-4.4006 -0.67158,-0.0312 -1.9188,0.0624 -2.27057,-0.21848 -0.35179,-0.28087 -1.95079,-3.93244 -2.27059,-4.4942 -0.3198,-0.5618 -2.68631,-6.242 -3.77362,-6.64773 -1.08732,-0.40573 -7.67519,-3.4643 -8.4427,-3.27704 -0.76752,0.18727 -1.40712,1.34202 -1.95078,1.8726 -0.54366,0.53056 -1.34316,1.40444 -2.0787,1.52928 -0.73554,0.12484 -1.63098,0.3121 -2.49443,0.21847 -0.86346,-0.0936 -3.26195,-4.24455 -3.58175,-4.58786 -0.3198,-0.3433 -0.79951,-0.18725 -1.98276,1.09235 -1.18326,1.27961 -5.980248,5.89867 -7.195487,7.42796 -1.215236,1.52929 -3.773631,4.4006 -4.285308,5.39931 -0.51168,0.99872 -1.151277,2.46559 -1.503059,2.37196 -0.351777,-0.0936 -1.662954,-0.6242 -1.407113,-0.96752 0.255834,-0.3433 5.500545,-8.05214 5.980244,-8.67634 0.479699,-0.62421 7.723153,-8.30184 8.066933,-8.68417 0.34379,-0.38231 0.4877,-0.59298 -1.13529,-1.26399 -1.622974,-0.67107 -11.672248,-5.462659 -12.622001,-5.881963 -0.949757,-0.419309 -14.675982,-7.084065 -15.716193,-7.525438 -1.040205,-0.441375 -5.698531,-2.604112 -6.26386,-3.111694 -0.56533,-0.50758 -3.866861,-3.376515 -4.364354,-3.486861 -0.497488,-0.11034 -0.04523,-0.684131 -0.04523,-0.684131"
   transform="translate(-22.758992,-57.157798)"
   id="path8" />
    <path
   style="fill:#fcfdfe;fill-opacity:1;stroke-width:0.363849"
   d="m 118.98283,97.529217 c 0,0 6.55784,4.325463 7.19101,4.413743 0.63317,0.0883 7.91462,-2.295148 9.18096,-2.559971 1.26635,-0.264828 5.65388,-1.196263 9.94982,-1.588947 4.82004,-0.440591 9.56081,-0.393146 13.65838,0.220684 4.57073,0.684708 9.31666,1.456539 10.7639,1.853777 1.44725,0.397227 6.51261,1.809627 7.14579,2.030317 0.63316,0.22069 7.59803,-4.193056 7.73372,-4.502019 0.13572,-0.308962 -5.33673,-2.295146 -6.1508,-2.559974 -0.81407,-0.264822 -9.588,-2.471698 -11.03526,-2.824795 -1.44724,-0.353099 -11.89455,-1.456539 -13.0252,-1.456539 -1.13068,0 -9.22622,0.04414 -10.13073,0.220688 -0.90454,0.176552 -8.81917,1.103439 -10.17596,1.544813 -1.35678,0.441373 -7.73372,1.897913 -9.22619,2.559973 -1.49247,0.662062 -5.38195,2.25101 -5.38195,2.25101 M 83.977854,128.20367 c 0.378811,0.0313 1.394946,0.60646 1.778709,1.26187 0.383758,0.6554 0.703558,0.93629 0.895437,1.62291 0.191879,0.68662 0.3378,1.27513 0.6396,2.02864 0.240011,0.59925 0.575635,1.27961 1.151276,1.74775 0.575638,0.46816 1.017639,0.61176 1.758895,0.84267 0.604745,0.18839 1.215237,0.40573 1.982755,0.0625 0.767517,-0.34332 1.726917,-0.65541 2.462455,-1.09235 0.73554,-0.43695 1.94026,-1.67717 2.068178,-1.92683 0.127929,-0.24969 -0.08543,0.95931 -0.629082,1.48988 -0.543658,0.53057 -1.151274,1.09235 -1.726916,1.5293 -0.575637,0.43693 -1.215235,0.99871 -2.334532,1.06113 -1.119298,0.0625 -1.918798,0.12484 -2.782256,-0.40572 -0.863458,-0.53059 -1.375138,-0.71784 -1.790876,-1.5293 -0.415739,-0.81146 -1.279196,-2.40316 -1.630977,-3.24582 -0.351778,-0.84267 -0.287818,-1.40445 -0.895438,-2.1847 -0.607618,-0.78024 -1.019493,-1.22561 -1.019493,-1.22561"
   transform="translate(-22.758992,-57.157798)"
   id="path9" />
    <path
   style="display:inline;fill:#fcfdfe;fill-opacity:1;stroke-width:0.363849"
   d="m 81.280043,164.35297 c 1.899508,1.67722 2.697515,2.27345 3.149778,2.60448 0.452264,0.33104 1.515085,1.23585 2.442227,1.89791 0.927143,0.66206 2.645748,2.05239 3.369373,2.44963 0.72362,0.39724 1.537698,0.75034 1.967348,0.97103 0.429654,0.22067 -0.881913,-0.24276 -1.741216,-0.22069 -0.859303,0.022 -1.266343,0.37517 -1.085436,0.99309 0.180907,0.61793 1.492471,3.57514 2.148256,4.61237 0.655783,1.03723 3.00756,3.99443 4.635711,5.0758 1.628152,1.08137 6.309096,4.61237 10.809116,5.34064 4.50004,0.72828 5.63071,0.94896 7.82418,0.81654 2.19349,-0.13245 7.28146,-1.03723 8.41213,-1.41239 1.13065,-0.37517 3.88947,-1.14759 4.29651,-1.08137 0.40703,0.0662 0.83669,1.67722 0.83669,1.67722 0,0 3.23369,9.75438 3.57289,10.65919 0.33919,0.90482 2.37438,7.34891 2.82665,8.23164 0.45226,0.88276 2.98494,6.84131 3.64073,7.81234 0.65578,0.97102 2.89449,4.50201 3.36937,5.34063 0.47487,0.83862 1.56031,2.97929 2.01257,3.1779 0.45227,0.19862 6.73875,0.17655 8.07292,0.22068 1.33417,0.0441 7.39453,0.022 7.75634,-0.0441 0.36181,-0.0661 1.44724,-1.43447 1.89952,-2.42757 0.45225,-0.99309 3.39197,-5.67165 3.84423,-6.55439 0.45228,-0.88276 1.94474,-3.81791 2.44223,-5.07582 0.4975,-1.25792 2.78142,-7.85647 3.2337,-9.09231 0.45226,-1.23585 2.46484,-7.26062 2.87188,-8.47442 0.40704,-1.21377 1.65076,-5.29648 1.76383,-5.40682 0.11303,-0.11031 6.58045,1.58894 7.62065,1.78756 1.04022,0.19863 4.16084,0.66207 5.58547,0.68413 1.42463,0.022 5.51763,-0.26483 7.37191,-0.77241 1.85428,-0.50756 6.39954,-1.98617 8.20861,-3.2441 1.80905,-1.25792 6.08295,-4.54615 6.58044,-5.34062 0.49749,-0.79448 1.56031,-2.58205 2.08041,-3.531 0.52011,-0.94896 1.17589,-2.25102 1.31157,-2.51584 0.13573,-0.26483 0.81408,-1.72136 0.0453,-1.72136 -0.76884,0 -3.16586,1.25791 -3.34676,1.30205 -0.1809,0.0441 -0.31658,-0.35309 -0.11304,-0.46345 0.20351,-0.1103 5.35933,-3.68547 5.44979,-3.70754 0.0905,-0.022 4.02517,-2.86894 4.43219,-3.22203 0.40703,-0.3531 -0.74623,1.21377 -1.08543,1.91998 -0.3392,0.7062 -0.8367,2.80272 -1.17588,3.70754 -0.3392,0.90482 -1.92214,4.78892 -2.5553,5.75994 -0.63318,0.97102 -2.64575,4.74479 -4.81663,6.59855 -2.17085,1.85378 -6.1734,4.85513 -9.83675,5.89236 -3.66333,1.03723 -6.39954,1.87584 -9.90458,1.80964 -3.50506,-0.0662 -6.17342,-0.41931 -8.07292,-0.90482 -1.89951,-0.48551 -5.58546,-1.91999 -6.01513,-1.80963 -0.42965,0.1103 -1.42462,3.26615 -1.67336,4.06064 -0.24875,0.79447 -3.70857,10.23989 -4.02517,11.1447 -0.31657,0.90482 -3.82163,8.67302 -4.36434,9.59991 -0.54272,0.92688 -2.39701,4.74478 -3.09802,5.80406 -0.701,1.05931 -3.16584,4.96548 -3.66333,5.20824 -0.4975,0.24275 -6.19602,0.22068 -7.50759,0.19862 -1.31157,-0.022 -9.27142,0.33102 -9.63324,-0.13247 -0.36181,-0.46343 -5.22366,-7.92266 -5.56285,-8.49646 -0.3392,-0.57378 -3.86686,-7.06199 -4.22867,-7.87854 -0.36182,-0.81653 -4.56787,-12.44676 -4.74879,-12.97641 -0.1809,-0.52964 -2.19347,-6.2013 -2.37438,-6.44407 -0.18091,-0.24276 -4.11561,0.94897 -4.92968,1.08137 -0.81408,0.13246 -4.43219,1.10343 -7.41714,1.23585 -2.98494,0.13245 -6.26386,-0.17655 -7.64327,-0.44138 -1.37941,-0.26483 -6.01512,-1.74343 -7.281463,-2.44962 -1.266342,-0.7062 -4.952296,-3.06756 -5.517628,-3.61928 -0.565328,-0.55171 -3.391984,-3.33238 -4.183443,-4.45788 -0.791463,-1.12551 -2.93972,-5.3627 -3.211081,-6.0689 -0.271356,-0.7062 -1.650763,-4.56824 -1.967347,-5.14202 -0.316586,-0.57378 -0.791464,-1.80963 -1.153276,-2.27308 -0.361814,-0.46344 -2.272868,-2.21957 -2.372035,-2.41814 l -0.106449,-0.21314"
   transform="translate(-22.758992,-57.157798)"
   id="path10" />
    <path
   style="fill:#fcfdfe;fill-opacity:1;stroke-width:0.363849"
   d="m 218.68453,129.06543 c -0.38443,0.72828 -0.54271,0.68414 -0.83669,1.52274 -0.29397,0.83862 -0.58794,1.14758 -0.72362,1.67724 -0.13573,0.52964 -0.15829,0.86068 -0.45227,1.54481 -0.29396,0.68412 -0.72362,1.63307 -2.10303,2.25101 -1.37941,0.61791 -3.55027,1.25791 -5.06535,0.15448 -1.51509,-1.10345 -2.51008,-1.52275 -2.78144,-2.75859 -0.27135,-1.23585 -0.24875,-2.22895 -0.27135,-2.62619 -0.0227,-0.39724 0.29397,1.56688 0.79146,2.4055 0.49748,0.83862 1.58293,2.03032 2.44222,2.27308 0.85931,0.24276 2.30657,0.48551 3.21108,0.24276 0.90454,-0.24276 1.78645,-0.30898 2.26133,-1.08137 0.47487,-0.77241 1.08543,-1.89792 1.40201,-2.69238 0.3166,-0.79448 0.92186,-2.39139 1.10806,-2.6262 0.43953,-0.55426 0.88686,-0.92605 1.06455,-1.00007 0.25416,-0.10583 0.11583,-9.5e-4 0.11583,-9.5e-4"
   transform="translate(-22.758992,-57.157798)"
   id="path11" />
    
  </g>
  <g
   style="display:inline;fill:#fcfbff;fill-opacity:1"
   id="g14"
   transform="translate(0,26)">
    <path
   style="fill:#ffee95;fill-opacity:1;stroke-width:0.363849"
   d="m 100.98269,156.80584 c 2.80405,0.4855 9.22621,1.01516 11.35186,1.85377 2.12563,0.83861 6.24125,2.91308 7.46236,4.19306 1.22111,1.27999 2.93971,3.08962 3.79902,5.03168 0.8593,1.94203 2.80404,7.59163 2.80404,7.98886 0,0.39725 -5.15582,2.64826 -5.87944,2.82481 -0.72362,0.17656 -2.26132,0.92689 -5.11059,0.7062 -2.84926,-0.22069 -5.78899,-0.88275 -7.41714,-1.89792 -1.62815,-1.01516 -3.40883,-1.71951 -5.51762,-4.72271 -1.28135,-1.82479 -2.491342,-4.98936 -2.577916,-6.39992 -0.178632,-2.91048 -0.329601,-5.58228 0.271356,-7.76819 l 0.19416,-0.70621"
   transform="translate(-22.758992,-57.157798)"
   id="path13" />
    <path
   style="display:inline;fill:#ffffff;fill-opacity:1;stroke-width:0.363849"
   d="m 114.29059,159.53132 c 1.1985,0.44138 2.30673,1.20264 2.82665,1.4786 0.64448,0.34207 0.61056,0.2869 1.93343,1.2138 1.11871,0.78383 0.95654,0.94179 0.98334,1.95685 0.007,0.25053 -0.15435,2.10425 -0.53107,2.77688 -0.28418,0.50738 -0.77159,1.12944 -1.83168,1.72136 -0.68783,0.38407 -1.22111,0.7062 -2.30654,0.7062 -1.08544,0 -1.62588,-0.13246 -2.5078,-0.48551 -0.88191,-0.35309 -1.90064,-1.47483 -2.17201,-2.13689 -0.27136,-0.66206 -0.51554,-2.62345 -0.26587,-3.29359 0.35131,-0.94295 0.75949,-1.87316 1.32482,-2.38075 0.56533,-0.50758 1.48826,-1.15771 2.01532,-1.39144 l 0.24874,-0.11031"
   transform="translate(-22.758992,-57.157798)"
   id="path14" />
  </g>
  <g
   style="display:inline;fill:#fcfbff;fill-opacity:1"
   id="g16"
   transform="translate(0,26)">
    <path
   style="fill:#ffee95;fill-opacity:1;stroke-width:0.363849"
   d="m 10.771025,156.80584 c 2.80404,0.4855 9.226197,1.01516 11.351838,1.85377 2.125645,0.83861 6.24125,2.91308 7.462362,4.19306 1.221118,1.27999 2.93972,3.08962 3.799022,5.03168 0.859304,1.94203 2.804042,7.59163 2.804042,7.98886 0,0.39725 -5.155815,2.64826 -5.87944,2.82481 -0.723624,0.17656 -2.261322,0.92689 -5.110588,0.7062 -2.849266,-0.22069 -5.788985,-0.88275 -7.417138,-1.89792 -1.628148,-1.01516 -3.408832,-1.71951 -5.517625,-4.72271 -1.281346,-1.82479 -2.4913337,-4.98936 -2.5779077,-6.39992 -0.178633,-2.91048 -0.329601,-5.58228 0.27136,-7.76819 l 0.1941517,-0.70621"
   transform="matrix(-1,0,0,1,190.7767,-57.157798)"
   id="path15" />
    <path
   style="display:inline;fill:#ffffff;fill-opacity:1;stroke-width:0.363849"
   d="m 24.078909,159.53132 c 1.198499,0.44138 2.306733,1.20264 2.826651,1.4786 0.644475,0.34207 0.610558,0.2869 1.933431,1.2138 1.118708,0.78383 0.956532,0.94179 0.983342,1.95685 0.0067,0.25053 -0.154349,2.10425 -0.531079,2.77688 -0.284174,0.50738 -0.771581,1.12944 -1.831669,1.72136 -0.687835,0.38407 -1.221114,0.7062 -2.306549,0.7062 -1.085435,0 -1.62588,-0.13246 -2.507798,-0.48551 -0.881913,-0.35309 -1.900643,-1.47483 -2.172003,-2.13689 -0.271359,-0.66206 -0.515541,-2.62345 -0.265872,-3.29359 0.351308,-0.94295 0.759484,-1.87316 1.324813,-2.38075 0.565332,-0.50758 1.488262,-1.15771 2.015322,-1.39144 l 0.248743,-0.11031"
   transform="matrix(-1,0,0,1,190.7767,-57.157798)"
   id="path16" />
  </g>
  
</svg>
