<svg width="64" height="64" viewBox="0 0 256 256" xml:space="preserve" xmlns="http://www.w3.org/2000/svg">
  <g style="display:inline;fill:#f9bb07;fill-opacity:1">
    <path style="fill:#ffee95;fill-opacity:1;stroke-width:.264583" d="M45.747506 29.773516H165.70199a23.966328 23.966328 45 0 1 23.96633 23.966328V164.3057H21.319305V54.201717a24.428201 24.428201 135 0 1 24.428201-24.428201Z" transform="matrix(1.3814 0 0 1.40121 -16.98129289 -39.60227774)"/>
  </g>
  <g style="display:inline;fill:#f2f7f8;fill-opacity:1">
    <path style="display:inline;fill:#222;fill-opacity:1;stroke-width:.357429" d="M73.709569 311.5451c-4.314731-.60398-12.717314-3.79368-17.148193-6.50962-4.666063-2.86009-12.150672-10.44333-15.014423-15.2123-1.758764-2.92884-4.534352-9.80808-5.461899-13.53722l-.922177-3.70754-.155884-36.72238c-.08573-20.19731-.102635-37.50647-.03756-38.46483l.11833-1.74245.986082 1.26614c.957694 1.22967.996627 1.46281 1.352339 8.09824.405789 7.56957.853468 9.66587 3.342086 15.64968 2.266484 5.44967 5.747116 9.96469 11.548443 14.98045 6.283822 5.43293 13.379306 8.34119 21.370605 8.75927 4.774638.2498 9.869721-.73095 12.117594-2.33251 2.53426-1.80562 4.402596-3.83949 4.795525-5.22042.221539-.7786.384031-5.00443.385195-10.01779l.0019-8.67111-2.261323-1.63309c-8.276114-5.97683-15.196518-14.23679-20.193976-24.10285-1.542182-3.0446-2.129144-5.97574-3.429353-17.12534-.689518-5.91277-.637016-6.82694 1.166051-20.30323.701563-5.24354 1.355735-10.32817 1.453717-11.2992.165909-1.64421-.06388-2.287-3.345079-9.35714-4.018116-8.65798-8.842804-21.91775-9.926073-27.27996-1.269671-6.28492-3.261332-19.424768-3.262301-21.522831-.0015-2.982395 1.129009-5.59475 3.186525-7.3641 2.129991-1.83168 3.728019-3.693016 6.706448-3.179088l1.360869.234816 19.720898 7.93432c10.870658 4.373596 20.257295 8.87842 21.186505 9.269412l1.68947.710895 5.90858-2.67401c8.28394-3.74902 7.93262-3.631044 15.99572-5.371431 16.53003-3.567937 18.42147-3.738772 33.51115-3.026756 6.22896.293916 7.05761.416332 11.93977 1.763832 8.59848 2.373225 12.86692 3.824644 19.46126 6.617497 5.91736 2.506139 6.31787 2.625017 7.41713 2.201508 2.85843-1.10126 21.93323-9.276939 30.53984-13.089732 11.46392-5.078589 12.48676-5.300145 16.00945-3.467775 2.70981 1.409534 4.46001 3.314063 5.47251 5.955041.71259 1.858725.73226 2.234361.35275 6.736914-1.093 12.967338-4.50178 25.920098-10.59386 40.254958-1.19675 2.81596-2.70151 6.15277-3.34391 7.41509-2.40773 4.73128-2.51347 5.22377-1.87196 8.71927.31387 1.71026.85557 5.89023 1.20376 9.28882.80138 7.82206.90905 24.85967.1774 28.07144-2.60706 11.44428-6.89785 19.43173-14.48506 26.96437-2.11558 2.10037-5.23044 4.81877-6.92192 6.04087l-3.07539 2.222-.22908 2.15996c-.12598 1.18798-.24809 5.12098-.27135 8.74003-.0479 7.44903.31148 9.23085 2.3246 11.52611 1.37273 1.56511 4.17584 3.13989 6.8051 3.82311 2.48895.64675 9.65329.62911 12.87215-.0316 12.28193-2.52138 23.24243-11.84363 28.73912-24.44358 1.87817-4.30528 2.3741-6.78639 2.74446-13.73053.25676-4.81412.49625-6.70786.97123-7.67991.34674-.70963.76309-1.2902.92523-1.2902.45178 0 .36814 70.71203-.0884 74.70749-1.17484 10.2824-7.11115 21.68822-14.84091 28.51482-6.6142 5.84138-13.96756 9.45351-22.71478 11.15795-3.72104.72506-4.28154.72994-78.87492.68666-42.14348-.0244-76.120761-.18265-77.390164-.36034z" transform="translate(-22.758992 -57.157798)"/>
  </g>
  <g style="display:inline;fill:#3e4b51;fill-opacity:1">
    <path style="fill:#3e4b51;fill-opacity:1;stroke-width:.363849" d="M61.522626 84.17763c-.339196.684131-.565327 1.390333-.452263 2.405493.113061 1.015164.452263 6.664759.678395 7.415095.226131.750338 1.085435 6.179242 1.311566 6.841312.226134.66206 1.605539 7.03992 1.899515 7.76819.293971.72826 2.261319 7.32682 2.600519 8.16543.339196.83862 2.962329 7.30475 3.278915 7.79027.316587.48551 1.628153 2.91306 1.989967 3.17788.36181.26484 2.419613-2.51582 2.577905-3.0234.158293-.50759-1.243727-3.83997-1.741217-4.9434-.497492-1.10343-2.939719-9.15852-3.256304-9.93093-.316586-.77241-1.46986-4.98754-1.650766-5.95856-.180905-.97103-.881914-3.02342-.927144-3.81789-.04523-.794477-.02261-1.58895.226132-2.052394.248747-.463444.452269-.882749.994986-1.081365.542714-.198621 5.788982-.06621 6.218634-.08828.42965-.02208-13.319186-12.733661-13.319186-12.733661M241.75465 84.694929c.19188.358911.57564 1.60731.51167 2.668447-.0639 1.061137-1.48868 10.474803-1.62434 11.313411-.13573.838614-3.66336 14.123993-3.93471 15.227423-.27136 1.10344-2.75882 7.54752-3.21108 8.60681-.45226 1.05931-1.53771 3.61928-2.48745 4.45788-.94976.83862-.94976 1.50068-1.44726.66207-.49748-.8386-1.53769-2.51584-1.26634-3.35445.27137-.83861 2.93974-7.63578 3.30154-8.91576.3618-1.28 1.89951-6.7089 2.2161-7.85648.31658-1.14757 1.58292-6.1351 1.62815-7.062.0453-.926879.27135-3.486853-.49748-3.530989-.76886-.04414-5.65332.04414-6.37694-.176551-.72363-.220687 2.44223-4.590297 2.62314-4.766844.18089-.176552 8.54779-6.620621 8.54779-6.620621M225.87554 143.98389c-1.44725.13246-2.48746.2869-3.27893.77241-.79145.48553-1.96734 1.36827-2.69097 1.89791-.72362.52966-.92714.79448-1.13066 1.23586-.20351.44137 3.18846-1.61102 3.59551-1.74342.40704-.13247 1.15327-.64001 2.12563-.50759.97237.13245 1.13067.44137 1.62817.48551.49748.0441 1.28894-.88274.83669-1.39033-.45229-.50758-.45229-.48551-.45229-.48551M77.631732 144.17561c1.447251.13245 2.487454.28688 3.278928.77239.791459.48553 1.967344 1.36826 2.690969 1.89792.723626.52965.927142.79448 1.13066 1.23584.203516.44137-3.188459-1.61101-3.595506-1.74341-.407033-.13246-1.153266-.64-2.125635-.50759-.972369.13246-1.130658.44137-1.62816.4855-.497487.0441-1.288947-.88273-.836686-1.39032.452274-.50759.452274-.4855.452274-.4855M75.491005 174.1113c.09594.92068.111934 2.59042.19188 3.1522.07995.56178 1.119297 6.913 1.630977 8.91042.511677 1.99744 2.94215 7.11587 3.581752 8.36426.639599 1.2484 3.581748 5.92989 4.733027 6.99102 1.151277 1.06114 4.157393 3.99486 5.628467 4.80632 1.471075.81145 7.291423 5.056 8.37874 5.43052 1.087322.37452 3.134032 1.68535 4.093432 1.62293.9594-.0625.6396-.99873-.70355-2.87132-1.34316-1.8726-3.389882-4.43181-3.389882-5.30568 0-.87388.510162-2.15007 1.211172-2.30455.70101-.15448 1.78645-.11031 2.44223.52965.65578.63999 1.74122 2.31722 2.2161 2.95721.47487.64 3.79901 5.3627 4.38696 6.3558.58795.99309 3.45983 6.15718 4.04777 7.72405.58794 1.56688 3.03018 7.8344 3.48244 8.76129.45226.92688 4.91908 10.55713 5.87848 11.80551.9594 1.2484 1.9188 2.74648 3.64571 3.80762 1.72692 1.06113 3.51779 1.74775 6.26807 1.24839 2.75027-.49935 9.53001-1.81017 10.48941-2.18469.9594-.37452 2.43048-6.86618 1.85484-7.42796-.57563-.56178-10.29754 1.74775-12.53613.87388-2.23859-.87388-5.56451-5.86746-6.84371-8.30184-1.27919-2.43437-9.59398-18.28901-9.59398-18.28901s-.0672.59243-.81346 1.1c-.74624.50758-1.92212 1.52275-2.7362 1.10343-.81407-.41929-2.46484-2.11859-3.14324-3.7296-.67839-1.61102-5.67592-8.71715-6.19602-9.35716-.52011-.63998-1.24373-1.43446-1.06282-2.251.18091-.81654.65578-2.1186 1.28895-2.1848.63317-.0661 1.5377-.24276 1.92213-.35309.38442-.11032-4.47743-1.19171-4.47743-1.19171s-3.663337.41929-4.273893 1.23584c-.610558.81654-1.424635 1.03724-2.555294-.59586-1.130662-1.63308-11.464903-14.38881-12.143304-15.18329-.678395-.79447-5.291493-5.03167-5.83421-5.07581l-.542717-.0441M228.22246 172.17897c.10761 1.27377.26491 4.57942.18495 5.14119-.0799.56178-1.1193 6.913-1.63097 8.91043-.51168 1.99743-2.94214 7.11587-3.58175 8.36425-.6396 1.2484-3.58175 5.92989-4.73302 6.99102-1.1513 1.06115-4.15741 3.99486-5.62848 4.80632-1.47108.81147-7.29143 5.05601-8.37874 5.43053-1.08732.37451-3.13403 1.68534-4.09344 1.62291-.9594-.0625-.63959-.99871.70357-2.8713 1.34315-1.8726 3.38987-4.4318 3.38987-5.30569 0-.87387-.51017-2.15007-1.21117-2.30454-.70101-.15449-1.78645-.11032-2.44223.52964-.65579.64001-1.74122 2.31722-2.2161 2.95721-.47487.64-3.79901 5.3627-4.38697 6.3558-.58794.99309-3.45983 6.15718-4.04776 7.72404-.58795 1.56689-3.03018 7.83441-3.48244 8.76131-.45225.92688-4.91908 10.55712-5.87848 11.80551-.9594 1.2484-1.9188 2.74647-3.64572 3.80761-1.72691 1.06113-3.51778 1.74775-6.26805 1.24839-2.75028-.49935-9.53002-1.81017-10.48942-2.18468-.95939-.37452-2.43048-6.86618-1.85484-7.42796.57565-.56178 10.29754 1.74776 12.53614.87387 2.23858-.87387 5.5645-5.86746 6.84371-8.30184 1.27919-2.43436 9.59397-18.28901 9.59397-18.28901s.0672.59244.81346 1.1c.74624.50759 1.92212 1.52275 2.7362 1.10344.81408-.41929 2.46484-2.11859 3.14323-3.72962.6784-1.61101 5.67593-8.71714 6.19604-9.35713.52009-.63999 1.24371-1.43447 1.06281-2.25102-.1809-.81653-.65578-2.1186-1.28895-2.1848-.63317-.0661-1.5377-.24275-1.92212-.35309-.38442-.11032 4.47741-1.19172 4.47741-1.19172s3.66335.4193 4.2739 1.23586c.61056.81654 1.42463 1.03723 2.55529-.59587 1.13067-1.63309 11.284-15.0288 11.9624-15.82327.6784-.79448 4.72594-4.88192 5.15582-5.20823l.81408-.61795" transform="translate(-22.758992 -57.157798)"/>
    <path style="fill:#3e4b51;fill-opacity:1;stroke-width:.508255" d="M140.96289 206.23335c.15828.73207.45226 1.89476 1.22111 2.23925.76885.34451 4.25583 1.44793 5.88398 1.62017 1.62816.17232 7.36965.26709 8.63371.18846 1.05294-.0655 3.89657-.96871 4.21315-1.05484.31659-.0862 1.12517-1.37075 1.46437-2.36117.33921-.99045-20.94145-.89026-20.94145-.89026" transform="translate(-22.758992 -57.157798)"/>
    <path style="fill:#666;fill-opacity:1;stroke-width:.363849" d="M81.759071 101.22058c1.598998 1.935.127915 2.02864 2.654336 4.71268 2.52641 2.68406 8.858437 7.95853 9.625957 8.08337.767517.12483 3.19799-2.1847 2.686314-2.71525-.511679-.53058-13.14375-10.45533-13.14375-10.45533M221.45355 101.22058c-1.59899 1.935-.12792 2.02864-2.65433 4.71268-2.5264 2.68406-8.85844 7.95853-9.62596 8.08337-.76751.12483-3.19799-2.1847-2.68631-2.71525.51168-.53058 13.14375-10.45533 13.14375-10.45533" transform="translate(-22.758992 -57.157798)"/>
  </g>
  <g style="display:inline;fill:#9da6ad;fill-opacity:1">
    <path style="fill:#9da6ad;fill-opacity:1;stroke-width:.363849" d="M65.932205 88.03966c.135682.176547 5.427175 4.987532 6.060342 5.826144.633171.838612 5.4724 4.987535 6.015117 5.384773.542718.397235 2.44223 1.721363 3.165851 1.986183.723626.26483 2.125646.75033 2.758817 1.01516.633167.26483 11.170931 9.88679 11.397064 10.01921.226132.13241-3.889476 5.34064-4.34174 6.09096-.452265.75034-2.984945 4.4579-2.984945 4.76685 0 .30897 1.989964 1.50067 2.623134 1.85379.633168.35309 4.206057 1.98617 4.929683 2.86893.723621.88273 1.130659 1.19171 1.221113 2.55997.09046 1.36826.226132 2.16273-.407038 2.91307-.633173.75035-1.854286 2.29515-3.165853 2.51584-1.311566.22069-2.53268.39723-3.482436-.0441-.949753-.44137-1.989964-1.10344-2.442226-1.94205-.452266-.83862-.859304-2.86893-1.311568-3.61927-.452264-.75034-1.402021-1.94206-1.944738-2.03033-.542718-.0884-1.040206-.17655-1.447246.92689-.407039 1.10344-3.708568 6.84132-3.708568 7.4151 0 .57379-.226132.66205.587945 1.27998.814075.61793 4.251284 1.80964 4.929683 2.47169.678397.66206 2.261319 1.98619 2.713585 2.60411.452267.61793 2.397001 2.73653 3.120625 3.35446.723625.61792 3.030174 2.51583 3.844248 2.86892.814077.3531 1.628152.79449 2.125644.79449.497489 0 3.373217-.73977 4.748782-1.01516 2.39853-.48018 4.92618-.42198 6.46388-.46612 1.5377-.0441 2.58141.59852 2.71708-.19599.13569-.79449-.13568-2.3393-.81408-3.79583-.67839-1.45654-1.8995-4.19306-1.98996-5.03168-.0905-.83862-.0452-2.71444.40705-3.19996.45226-.48553 1.51508-1.39034 2.60051-1.36826 1.08544.022 2.39701.11031 2.91711 1.10343.52011.9931 3.97993 10.79161 4.20606 11.91712.22613 1.12549-.0226 2.09654.3392 2.58204.36181.48551 2.76906 1.1964 4.72616 2.29514 3.22382 1.80992 6.18887 3.98271 7.10056 5.14202 2.49246 3.16944 4.20802 4.90681 4.92968 6.81925 1.46187 3.87405 2.11668 5.29649 2.80404 10.72539.68362 5.39933 2.93971 24.23148 3.0754 26.35007.13568 2.1186.34187 3.99184.66167 4.5224.3198.53058 5.98025 1.12356 7.77113 1.12356 1.79087 0 13.07979.31211 13.43156-.34332.35178-.65539.57563-2.49678.6396-3.08977.0639-.59299 1.37514-10.11201 1.50306-10.95467.12792-.84267.97497-10.56377 1.59899-15.60494.56431-4.55874.55829-5.97446 1.53503-9.4254 1.08492-3.83313 2.78647-5.71924 4.66908-7.86489 3.56599-4.06423 3.81472-4.11731 6.77975-6.17956 2.41679-1.68095 6.47828-3.16219 6.7044-3.2946.22614-.13246 1.0176-4.34753 1.22114-4.78891.20351-.44137 1.58291-4.54616 1.80905-5.20822.22612-.66206.74623-2.36135.94975-2.69238.20351-.33103.81244-2.18006 1.42005-2.53897.60763-.35893 1.63098-.9363 2.47844-.76465.84748.17165 1.47109.3277 1.99876.88948.52766.56177.95939 1.93502.76751 2.71525-.19188.78026-1.69493 5.05601-1.82285 5.50856-.12793.45254-.91143 3.35506-1.00736 3.83883-.096.48374-.14393.92068-.11193 1.01431.032.0936 3.39798-.42581 6.60385-.10923 2.7616.27271 5.27669 1.31082 6.0762 1.43566.79949.12484 2.43048-.34332 3.93353-1.27961 1.50305-.93631 3.93352-2.62164 5.46856-4.49424 1.53504-1.87258 2.78225-3.46428 3.58174-3.87002.79951-.40572 2.49445-1.06113 3.32593-1.46686.83148-.40574 1.85482-.65541 2.01473-1.34202.1599-.68663-.032-1.12357-.54367-1.90381s-3.26194-7.11586-3.64569-7.27191c-.38376-.15605-1.1513-.43695-1.50306.0624-.35178.49935-.78352.56177-1.07133 1.24838-.28782.68663-1.1193 2.54361-1.29519 3.01178-.1759.46814-.75153 1.87258-1.19925 2.2471-.44771.37451-.59163.60858-1.18326.76464-.59163.15605-1.55102.37453-2.41448.28089-.86346-.0936-1.82286-.24969-2.19062-.45256-.36777-.20285-1.45509-1.01431-1.72691-1.49806-.27185-.48375-.75154-.88948-.76752-1.56049-.016-.67102-.33579-3.01176.048-3.40189.38376-.39012 1.98275-1.62291 2.75028-1.99743.76751-.37451 3.98148-1.99743 4.41323-2.29393.43172-.2965 1.32716-.85828 1.39112-1.20157.064-.34331-1.4391-2.98055-1.66296-3.26146-.22385-.28087-3.30992-4.57223-3.51779-4.86873-.20788-.29649-2.25458-2.93373-2.31855-3.12099-.064-.18726 4.25333-4.05729 5.08481-4.65027.83149-.59299 5.94828-4.7127 6.33203-4.96238.38376-.24967.4797-.74904 1.05534-.78025.57563-.0311 1.91878-.65541 2.81423-1.15476.89543-.49936 4.15738-3.214621 4.98887-4.213338.83148-.99872 8.41072-6.959809 8.82645-7.459168.41575-.49936 1.05535-1.778965 1.08733-1.966224.032-.187259-37.19453 18.00717-37.19453 18.00717s-1.83167 2.69238-1.8769 2.86892c-.0453.17655-1.28894 2.38343-1.65076 2.7586-.36181.37517-1.62815 1.32413-1.83166 1.36827-.20352.0441-1.19851.19861-1.80907-.11035-.61055-.30896-1.04021-.50757-1.24372-.63998-.20352-.13243-1.08543-1.01517-1.19851-1.27999-.11303-.26483-.54272-1.08137-1.06281-1.27999-.52011-.19862-1.46987-.17655-1.74122-.11035-.27137.0661-7.98247 2.84686-8.25382 3.39858-.27137.55172-5.22367 10.65919-5.60809 10.70335-.38443.0441-1.31157 0-1.74121.19861-.42966.19861-.52011.37517-.88193.63999-.36181.26483-6.55783 4.59031-7.12316 4.92133-.56532.33104-4.99752 1.0593-5.87944 1.08136-.8819.022-18.24887-.11031-18.70113-.33102-.45226-.22069-2.69098-1.10345-3.2563-1.54481-.56533-.44137-5.38195-4.43582-5.76638-4.5241-.38443-.0884-2.08041.13246-2.28393-.19861-.20352-.33103-3.39198-7.03993-3.68596-7.50337-.29397-.46345-1.80906-3.55306-2.30654-3.72962-.4975-.17655-8.18599-3.53099-8.63826-3.35445-.45226.17655-1.5377 1.01516-2.19348 1.69929-.65579.68413-1.49247 1.91999-2.32916 1.94205-.8367.022-1.97536.18525-2.32917-.13242-2.26132-2.03032-3.39198-6.2013-3.57289-6.4882" transform="translate(-22.758992 -57.157798)"/>
    <path style="fill:#9da6ad;fill-opacity:1;stroke-width:.363849" d="M79.409686 162.98508c1.447245 1.19172 3.957315 3.26618 4.138222 3.42064.180902.1545 6.060342 4.61237 6.354313 4.76686.293971.15448 2.283935 1.0593 2.408309 1.18067.124365.12146.395732.61794.508796.97103.113061.35309.712318 2.63721.847995 2.94618.135683.30896 1.752528 3.42066 2.069109 3.86202.316587.44137 2.758817 3.29928 3.199773 3.65238.440958.35309 5.272787 3.69987 6.008317 4.01199.73554.31209 6.01223 1.06113 7.22747 1.21717 1.21523.15605 5.94826-.28088 6.71578-.46815.76752-.18725 6.97162-1.56049 7.4833-1.62291.51168-.0624 1.98276 1.93502 1.95078 2.30953-.032.37453 2.46246 7.70885 2.59038 8.02096.12791.31209 4.89292 13.45146 5.21272 13.91961.3198.46815 5.82035 10.17443 6.10817 10.54895.28782.37452.63959 1.49807 1.50306 1.87259.86346.37452 5.4046.18726 5.59648.18726.19188 0 9.62596.15606 10.3615-.0625.73554-.21846 2.97413-4.0885 3.22997-4.40059.25584-.31211 4.09342-7.2407 4.31729-7.77127.22386-.53057 2.94216-7.74006 3.00611-8.08336.0639-.3433 4.09343-11.67251 4.28531-12.35913.19188-.68662 1.24722-3.58914 1.56702-3.77639.3198-.18726 1.63097-.34332 2.30255.0312.67158.37451 4.12541.9363 4.34927 1.02993.22387.0936 4.79699.81146 5.66045.81146.86345 0 4.76501-.21848 5.82034-.34331 1.05534-.12485 3.86957-.65541 4.3173-.74903.44772-.0936 4.18936-2.37196 4.44521-2.62164.25584-.24969 3.74166-3.87003 4.66908-4.99358.9274-1.12356 2.6988-6.34188 2.82318-6.78325.12431-.44138.29397-.94896.46357-1.03723.1696-.0884 4.16083-2.62618 4.90707-3.17789.74623-.55173 3.18845-2.14067 3.59551-2.58206.40703-.44136 1.41332-1.24688 1.61684-1.35722.20351-.11031 2.26131-1.68826 2.397-1.75446.13572-.0662 1.23241-.84965 1.76383-.88276.5314-.0331 1.40201.11031 1.74122.49656.3392.3862.82538 2.12964.82538 2.53789 0 .40828.42947 5.92647.42947 6.20737 0 .28088-1.02335.87387-1.75888 1.77897-.73555.90508-5.05284 5.11841-5.72442 6.17955-.67157 1.06113-4.70104 6.49166-5.59647 8.14578-.89545 1.65413-2.36653 4.05729-3.42187 5.30569-1.05533 1.2484-2.46244 2.74647-3.35789 3.58914-.89543.84266-1.24721 1.21719-1.40711.46814-.15991-.74903.064-1.84138-1.72691-2.21589-1.79088-.37452-4.50917-.31212-5.66045-.12485-1.15129.18726-2.46245-.18728-3.45384.53056-.99137.71783-2.68631 3.12098-3.22997 4.18213-.54366 1.06113-5.43659 10.42411-5.82035 11.67251-.38375 1.24838-5.8843 12.45274-6.49192 13.63872-.60762 1.18598-2.11067 4.30697-2.5584 5.39932-.44772 1.09233-1.50306 3.43308-2.17463 4.40058-.67158.96752-1.15127 2.1847-2.7183 2.7777-1.56701.59298-1.82285.81144-3.93353.74903-2.11067-.0625-7.99497-.46816-9.59397-.99872-1.599-.53057-1.40711-1.2484-2.52642-1.49807-1.1193-.24969-9.59398-.53057-10.23357-.0625-.63959.46814-.1599.71783-1.1193 1.09234-.95941.37453-10.2016 1.59171-11.00109 1.52928-.7995-.0624-2.20662-.0624-3.13404-.43693-.92742-.37451-2.30256-1.02993-2.75028-1.81018-.44771-.78025-5.82034-11.61008-6.30004-12.57759-.4797-.96749-5.85232-11.9534-6.17213-12.9521-.31979-.99872-3.29393-6.67892-3.64571-7.42796-.35178-.74904-3.77363-7.2407-4.82897-7.61522-1.05533-.37452-6.07619-1.12355-6.93964-.96752-.86346.15606-2.302558.0936-3.229977.9051-.927417.81145-1.247216 1.8726-1.215235 2.2159.03198.34331-2.206617-1.93502-2.494434-2.43437-.287821-.49936-3.006115-2.93373-3.453835-3.62034-.447718-.68662-2.334532-3.58914-3.038091-4.74391-.703559-1.15476-3.006116-4.55664-3.549772-5.27447-.54366-.71783-3.485813-4.18214-4.061451-4.68149-.575637-.49935-1.439098-1.37324-2.302555-1.81018-.863457-.43693-1.886814-1.02992-2.046713-1.06113-.159903-.0312-.06397-2.30953-.03198-2.90252.03198-.59298.127915-5.11844.351777-5.99231.22386-.87388.575641-2.09107.863459-2.37195.28782-.28089 1.055336-.74904 1.503054-.68661.44772.0624.9594.31208 1.168408.53067zM125.99293 101.72227c1.31157.92689 2.57791 1.41241 3.57289 2.51583.99498 1.10345 1.85429 1.89792 2.84927 4.28135.99498 2.38342 2.89449 6.39992 3.43721 7.63577.54271 1.23586 1.08543 3.79583 2.30655 4.67858 1.22111.88275 2.80404 2.03032 5.29149 2.29514 2.48745.26484 16.64334.13245 17.4574-.17654.81408-.30897 2.98494-.61793 4.02516-2.20688 1.04021-1.58895 2.17087-3.35444 2.84926-5.0758.6784-1.72137 2.53268-5.51719 3.12064-6.97373.58794-1.45653 1.58292-3.00134 2.44222-3.79582.8593-.79448 3.12061-2.60411 3.84424-3.13376.72363-.52965-8.77393-3.928231-11.17093-4.457881-2.397-.529649-16.779-1.235851-19.4926-1.147575-2.71357.08828-9.31664.838612-10.85435 1.324123-1.53769.485514-8.9096 2.957203-8.9096 2.957203" transform="translate(-22.758992 -57.157798)"/>
  </g>
  <g style="display:inline;fill:#fcfdfe;fill-opacity:1">
    <path style="display:inline;fill:#fcfdfe;fill-opacity:1;stroke-width:.363849" d="M62.087958 83.979013c.949757.308962 43.010352 19.729447 43.281712 20.038407.27136.30897.24643 2.60247.24643 2.60247s.12792 1.87259.30381 2.18469c.17588.3121.27183 1.01433.65559 1.40445.38375.39011.71954 1.06113 1.07132 1.12355.35178.0625 1.69494.12484 2.0627-.078.36778-.20286 1.85485-1.73215 2.09469-2.05985.23985-.32771 1.69495-1.95062 2.73429-1.76336 1.03935.18726 8.9064 2.94933 9.51402 3.60474.60762.65541 5.22872 10.90787 5.51654 11.21997.28783.3121.7995-.40573 1.40712-.0625.60762.34331 6.20411 4.96239 7.99499 5.77383 1.79087.81146 7.29141.68661 7.29141.68661s15.958.53057 17.10927-.0312c1.15127-.56178 3.86957-2.02863 5.46857-3.4643 1.599-1.43564 2.52642-2.77768 3.03809-2.74646.51167.0312 1.63097.43693 1.95077-.12484.3198-.56178 4.89294-10.79863 5.50055-11.07953.60761-.28089 8.7625-3.71397 9.49804-3.71397.73555 0 1.4391.46814 1.95077.93629.51168.46815 1.63098 2.09107 2.11068 2.40317.4797.31209.9594.68662 1.53504.65541.57563-.0311 1.15127.21847 1.63096-.24969.47972-.46815 1.34318-1.37323 1.53505-1.96623.19188-.59298-.12792-4.93115.0639-5.0872.19187-.15606 42.30945-19.662241 43.1729-19.849499.86346-.187261.76751-.12485.99138.312096.22386.436938-.76753.936298-1.7589 1.622916-.99138.686619-3.80562 2.652843-5.91629 3.682769-2.11067 1.029925-22.38594 10.330478-23.15346 10.798628-.76753.46815-9.72189 4.30696-9.81783 4.52543-.096.21847.83146.49936 1.63097 1.40445.79949.90508 5.75639 6.02351 6.30005 6.86617.54366.84267 5.11679 6.99103 5.72441 8.39548.60762 1.40444 1.15126 1.49807.44771 1.8726-.70355.37452-.70355-.0625-1.43909-1.09234-.73555-1.02994-6.364-8.05217-7.06756-8.73879-.70356-.68663-6.07619-6.33561-6.65182-6.49166-.57565-.15605-.6716.40573-1.08733 1.15476-.41574.74904-.79951 1.68533-1.2792 2.24712-.4797.56177-.7995.9675-1.4391 1.18597-.63959.21847-1.29518.40573-2.15863.21847-.86346-.18726-1.91881-.6242-2.28658-1.06114-.36776-.43694-.67158-1.21718-1.24721-1.66972-.57564-.45255-.84748-.79585-1.83884-.57738-.99139.21846-7.78711 2.76207-8.13889 3.21461-.35179.45254-5.18076 10.33047-5.56452 10.67379-.38375.34329-1.59899.28088-1.98275.37453-.38376.0936-4.38126 3.33946-4.79699 3.74517-.41574.40573-2.7183 1.90382-4.22135 2.1847-1.50306.2809-3.07007.59298-4.60512.59298-1.53503 0-18.16459-.18725-18.80419-.18725-.6396 0-3.00611-1.02993-3.93353-1.74775-.92742-.71782-5.02084-4.36939-5.69242-4.4006-.67158-.0312-1.9188.0624-2.27057-.21848-.35179-.28087-1.95079-3.93244-2.27059-4.4942-.3198-.5618-2.68631-6.242-3.77362-6.64773-1.08732-.40573-7.67519-3.4643-8.4427-3.27704-.76752.18727-1.40712 1.34202-1.95078 1.8726-.54366.53056-1.34316 1.40444-2.0787 1.52928-.73554.12484-1.63098.3121-2.49443.21847-.86346-.0936-3.26195-4.24455-3.58175-4.58786-.3198-.3433-.79951-.18725-1.98276 1.09235-1.18326 1.27961-5.980248 5.89867-7.195487 7.42796-1.215236 1.52929-3.773631 4.4006-4.285308 5.39931-.51168.99872-1.151277 2.46559-1.503059 2.37196-.351777-.0936-1.662954-.6242-1.407113-.96752.255834-.3433 5.500545-8.05214 5.980244-8.67634.479699-.62421 7.723153-8.30184 8.066933-8.68417.34379-.38231.4877-.59298-1.13529-1.26399-1.622974-.67107-11.672248-5.462659-12.622001-5.881963-.949757-.419309-14.675982-7.084065-15.716193-7.525438-1.040205-.441375-5.698531-2.604112-6.26386-3.111694-.56533-.50758-3.866861-3.376515-4.364354-3.486861-.497488-.11034-.04523-.684131-.04523-.684131" transform="translate(-22.758992 -57.157798)"/>
    <path style="fill:#fcfdfe;fill-opacity:1;stroke-width:.363849" d="M118.98283 97.529217s6.55784 4.325463 7.19101 4.413743c.63317.0883 7.91462-2.295148 9.18096-2.559971 1.26635-.264828 5.65388-1.196263 9.94982-1.588947 4.82004-.440591 9.56081-.393146 13.65838.220684 4.57073.684708 9.31666 1.456539 10.7639 1.853777 1.44725.397227 6.51261 1.809627 7.14579 2.030317.63316.22069 7.59803-4.193056 7.73372-4.502019.13572-.308962-5.33673-2.295146-6.1508-2.559974-.81407-.264822-9.588-2.471698-11.03526-2.824795-1.44724-.353099-11.89455-1.456539-13.0252-1.456539-1.13068 0-9.22622.04414-10.13073.220688-.90454.176552-8.81917 1.103439-10.17596 1.544813-1.35678.441373-7.73372 1.897913-9.22619 2.559973-1.49247.662062-5.38195 2.25101-5.38195 2.25101M83.977854 128.20367c.378811.0313 1.394946.60646 1.778709 1.26187.383758.6554.703558.93629.895437 1.62291.191879.68662.3378 1.27513.6396 2.02864.240011.59925.575635 1.27961 1.151276 1.74775.575638.46816 1.017639.61176 1.758895.84267.604745.18839 1.215237.40573 1.982755.0625.767517-.34332 1.726917-.65541 2.462455-1.09235.73554-.43695 1.94026-1.67717 2.068178-1.92683.127929-.24969-.08543.95931-.629082 1.48988-.543658.53057-1.151274 1.09235-1.726916 1.5293-.575637.43693-1.215235.99871-2.334532 1.06113-1.119298.0625-1.918798.12484-2.782256-.40572-.863458-.53059-1.375138-.71784-1.790876-1.5293-.415739-.81146-1.279196-2.40316-1.630977-3.24582-.351778-.84267-.287818-1.40445-.895438-2.1847-.607618-.78024-1.019493-1.22561-1.019493-1.22561" transform="translate(-22.758992 -57.157798)"/>
    <path style="display:inline;fill:#fcfdfe;fill-opacity:1;stroke-width:.363849" d="M81.280043 164.35297c1.899508 1.67722 2.697515 2.27345 3.149778 2.60448.452264.33104 1.515085 1.23585 2.442227 1.89791.927143.66206 2.645748 2.05239 3.369373 2.44963.72362.39724 1.537698.75034 1.967348.97103.429654.22067-.881913-.24276-1.741216-.22069-.859303.022-1.266343.37517-1.085436.99309.180907.61793 1.492471 3.57514 2.148256 4.61237.655783 1.03723 3.00756 3.99443 4.635711 5.0758 1.628152 1.08137 6.309096 4.61237 10.809116 5.34064 4.50004.72828 5.63071.94896 7.82418.81654 2.19349-.13245 7.28146-1.03723 8.41213-1.41239 1.13065-.37517 3.88947-1.14759 4.29651-1.08137.40703.0662.83669 1.67722.83669 1.67722s3.23369 9.75438 3.57289 10.65919c.33919.90482 2.37438 7.34891 2.82665 8.23164.45226.88276 2.98494 6.84131 3.64073 7.81234.65578.97102 2.89449 4.50201 3.36937 5.34063.47487.83862 1.56031 2.97929 2.01257 3.1779.45227.19862 6.73875.17655 8.07292.22068 1.33417.0441 7.39453.022 7.75634-.0441.36181-.0661 1.44724-1.43447 1.89952-2.42757.45225-.99309 3.39197-5.67165 3.84423-6.55439.45228-.88276 1.94474-3.81791 2.44223-5.07582.4975-1.25792 2.78142-7.85647 3.2337-9.09231.45226-1.23585 2.46484-7.26062 2.87188-8.47442.40704-1.21377 1.65076-5.29648 1.76383-5.40682.11303-.11031 6.58045 1.58894 7.62065 1.78756 1.04022.19863 4.16084.66207 5.58547.68413 1.42463.022 5.51763-.26483 7.37191-.77241 1.85428-.50756 6.39954-1.98617 8.20861-3.2441 1.80905-1.25792 6.08295-4.54615 6.58044-5.34062.49749-.79448 1.56031-2.58205 2.08041-3.531.52011-.94896 1.17589-2.25102 1.31157-2.51584.13573-.26483.81408-1.72136.0453-1.72136-.76884 0-3.16586 1.25791-3.34676 1.30205-.1809.0441-.31658-.35309-.11304-.46345.20351-.1103 5.35933-3.68547 5.44979-3.70754.0905-.022 4.02517-2.86894 4.43219-3.22203.40703-.3531-.74623 1.21377-1.08543 1.91998-.3392.7062-.8367 2.80272-1.17588 3.70754-.3392.90482-1.92214 4.78892-2.5553 5.75994-.63318.97102-2.64575 4.74479-4.81663 6.59855-2.17085 1.85378-6.1734 4.85513-9.83675 5.89236-3.66333 1.03723-6.39954 1.87584-9.90458 1.80964-3.50506-.0662-6.17342-.41931-8.07292-.90482-1.89951-.48551-5.58546-1.91999-6.01513-1.80963-.42965.1103-1.42462 3.26615-1.67336 4.06064-.24875.79447-3.70857 10.23989-4.02517 11.1447-.31657.90482-3.82163 8.67302-4.36434 9.59991-.54272.92688-2.39701 4.74478-3.09802 5.80406-.701 1.05931-3.16584 4.96548-3.66333 5.20824-.4975.24275-6.19602.22068-7.50759.19862-1.31157-.022-9.27142.33102-9.63324-.13247-.36181-.46343-5.22366-7.92266-5.56285-8.49646-.3392-.57378-3.86686-7.06199-4.22867-7.87854-.36182-.81653-4.56787-12.44676-4.74879-12.97641-.1809-.52964-2.19347-6.2013-2.37438-6.44407-.18091-.24276-4.11561.94897-4.92968 1.08137-.81408.13246-4.43219 1.10343-7.41714 1.23585-2.98494.13245-6.26386-.17655-7.64327-.44138s-6.01512-1.74343-7.281463-2.44962c-1.266342-.7062-4.952296-3.06756-5.517628-3.61928-.565328-.55171-3.391984-3.33238-4.183443-4.45788-.791463-1.12551-2.93972-5.3627-3.211081-6.0689-.271356-.7062-1.650763-4.56824-1.967347-5.14202-.316586-.57378-.791464-1.80963-1.153276-2.27308-.361814-.46344-2.272868-2.21957-2.372035-2.41814l-.106449-.21314" transform="translate(-22.758992 -57.157798)"/>
    <path style="fill:#fcfdfe;fill-opacity:1;stroke-width:.363849" d="M218.68453 129.06543c-.38443.72828-.54271.68414-.83669 1.52274-.29397.83862-.58794 1.14758-.72362 1.67724-.13573.52964-.15829.86068-.45227 1.54481-.29396.68412-.72362 1.63307-2.10303 2.25101-1.37941.61791-3.55027 1.25791-5.06535.15448-1.51509-1.10345-2.51008-1.52275-2.78144-2.75859-.27135-1.23585-.24875-2.22895-.27135-2.62619-.0227-.39724.29397 1.56688.79146 2.4055.49748.83862 1.58293 2.03032 2.44222 2.27308.85931.24276 2.30657.48551 3.21108.24276.90454-.24276 1.78645-.30898 2.26133-1.08137.47487-.77241 1.08543-1.89792 1.40201-2.69238.3166-.79448.92186-2.39139 1.10806-2.6262.43953-.55426.88686-.92605 1.06455-1.00007.25416-.10583.11583-.00095.11583-.00095" transform="translate(-22.758992 -57.157798)"/>
    <path style="fill:#ffee95;fill-opacity:1;stroke-width:.363849" d="M102.13029 226.21623c1.85483 1.21719 2.49443 1.12357 2.68631 2.59042.19188 1.46688.44772 5.58658-.12792 6.14836-.57563.56178-1.63098.84266-2.17463.37451-.54366-.46815-.83148-.49936-1.02337-1.37322-.19187-.87389-.1279-6.46046-.032-6.99102.096-.53057.28782-.87389.28782-.87389M201.96767 226.21623c-1.85485 1.21719-2.49445 1.12357-2.68632 2.59042-.19189 1.46688-.44773 5.58658.12792 6.14836.57564.56178 1.63098.84266 2.17464.37451.54366-.46815.83147-.49936 1.02336-1.37322.19188-.87389.12792-6.46046.032-6.99102-.0959-.53057-.28782-.87389-.28782-.87389" transform="translate(-22.758992 -57.157798)"/>
  </g>
  <g style="display:inline;fill:#fcfbff;fill-opacity:1">
    <path style="fill:#ffee95;fill-opacity:1;stroke-width:.363849" d="M100.98269 156.80584c2.80405.4855 9.22621 1.01516 11.35186 1.85377 2.12563.83861 6.24125 2.91308 7.46236 4.19306 1.22111 1.27999 2.93971 3.08962 3.79902 5.03168.8593 1.94203 2.80404 7.59163 2.80404 7.98886 0 .39725-5.15582 2.64826-5.87944 2.82481-.72362.17656-2.26132.92689-5.11059.7062-2.84926-.22069-5.78899-.88275-7.41714-1.89792-1.62815-1.01516-3.40883-1.71951-5.51762-4.72271-1.28135-1.82479-2.491342-4.98936-2.577916-6.39992-.178632-2.91048-.329601-5.58228.271356-7.76819l.19416-.70621" transform="translate(-22.758992 -57.157798)"/>
    <path style="display:inline;fill:#fff;fill-opacity:1;stroke-width:.363849" d="M114.29059 159.53132c1.1985.44138 2.30673 1.20264 2.82665 1.4786.64448.34207.61056.2869 1.93343 1.2138 1.11871.78383.95654.94179.98334 1.95685.007.25053-.15435 2.10425-.53107 2.77688-.28418.50738-.77159 1.12944-1.83168 1.72136-.68783.38407-1.22111.7062-2.30654.7062-1.08544 0-1.62588-.13246-2.5078-.48551-.88191-.35309-1.90064-1.47483-2.17201-2.13689-.27136-.66206-.51554-2.62345-.26587-3.29359.35131-.94295.75949-1.87316 1.32482-2.38075.56533-.50758 1.48826-1.15771 2.01532-1.39144l.24874-.11031" transform="translate(-22.758992 -57.157798)"/>
  </g>
  <g style="display:inline;fill:#fcfbff;fill-opacity:1">
    <path style="fill:#ffee95;fill-opacity:1;stroke-width:.363849" d="M10.771025 156.80584c2.80404.4855 9.226197 1.01516 11.351838 1.85377 2.125645.83861 6.24125 2.91308 7.462362 4.19306 1.221118 1.27999 2.93972 3.08962 3.799022 5.03168.859304 1.94203 2.804042 7.59163 2.804042 7.98886 0 .39725-5.155815 2.64826-5.87944 2.82481-.723624.17656-2.261322.92689-5.110588.7062-2.849266-.22069-5.788985-.88275-7.417138-1.89792-1.628148-1.01516-3.408832-1.71951-5.517625-4.72271-1.281346-1.82479-2.4913337-4.98936-2.5779077-6.39992-.178633-2.91048-.329601-5.58228.27136-7.76819l.1941517-.70621" transform="matrix(-1 0 0 1 190.7767 -57.157798)"/>
    <path style="display:inline;fill:#fff;fill-opacity:1;stroke-width:.363849" d="M24.078909 159.53132c1.198499.44138 2.306733 1.20264 2.826651 1.4786.644475.34207.610558.2869 1.933431 1.2138 1.118708.78383.956532.94179.983342 1.95685.0067.25053-.154349 2.10425-.531079 2.77688-.284174.50738-.771581 1.12944-1.831669 1.72136-.687835.38407-1.221114.7062-2.306549.7062s-1.62588-.13246-2.507798-.48551c-.881913-.35309-1.900643-1.47483-2.172003-2.13689-.271359-.66206-.515541-2.62345-.265872-3.29359.351308-.94295.759484-1.87316 1.324813-2.38075.565332-.50758 1.488262-1.15771 2.015322-1.39144l.248743-.11031" transform="matrix(-1 0 0 1 190.7767 -57.157798)"/>
  </g>
  <text xml:space="preserve" style="font-size:69.8592px;text-align:start;writing-mode:lr-tb;direction:ltr;text-anchor:start;display:inline;fill:#fff;fill-opacity:1;stroke-width:.363849" x="62.852005" y="251.30281" transform="scale(1.01226 .98789)"><tspan style="font-style:normal;font-variant:normal;font-weight:400;font-stretch:normal;font-size:69.8592px;font-family:'Segoe UI Symbol';-inkscape-font-specification:'Segoe UI Symbol';stroke-width:.363849" x="62.852005" y="251.30281">e6ai</tspan></text>
</svg>
