<svg xmlns="http://www.w3.org/2000/svg" xmlns:xlink="http://www.w3.org/1999/xlink" xml:space="preserve" width="256" height="256"><defs><linearGradient id="b"><stop offset="0" style="stop-color:#e40303;stop-opacity:1"/><stop offset=".161" style="stop-color:#e40303;stop-opacity:1"/><stop offset=".161" style="stop-color:#ff8c00;stop-opacity:1"/><stop offset=".32" style="stop-color:#ff8c00;stop-opacity:1"/><stop offset=".32" style="stop-color:#ffed00;stop-opacity:1"/><stop offset=".483" style="stop-color:#ffed00;stop-opacity:1"/><stop offset=".483" style="stop-color:#008026;stop-opacity:1"/><stop offset=".651" style="stop-color:#008026;stop-opacity:1"/><stop offset=".651" style="stop-color:#004dff;stop-opacity:1"/><stop offset=".826" style="stop-color:#004dff;stop-opacity:1"/><stop offset=".826" style="stop-color:#750787;stop-opacity:1"/></linearGradient><linearGradient id="a"><stop offset="0" style="stop-color:#e40303;stop-opacity:1"/><stop offset=".157" style="stop-color:#e40303;stop-opacity:1"/><stop offset=".161" style="stop-color:#ff8c00;stop-opacity:1"/><stop offset=".32" style="stop-color:#ff8c00;stop-opacity:1"/><stop offset=".32" style="stop-color:#ffed00;stop-opacity:1"/><stop offset=".479" style="stop-color:#ffed00;stop-opacity:1"/><stop offset=".483" style="stop-color:#008026;stop-opacity:1"/><stop offset=".651" style="stop-color:#008026;stop-opacity:1"/><stop offset=".651" style="stop-color:#004dff;stop-opacity:1"/><stop offset=".826" style="stop-color:#004dff;stop-opacity:1"/><stop offset=".826" style="stop-color:#750787;stop-opacity:1"/></linearGradient><linearGradient xlink:href="#b" id="c" x1="37.381" x2="217.635" y1="22.06" y2="181.724" gradientTransform="matrix(1.16121 0 0 1.07271 -20.33 -14.267)" gradientUnits="userSpaceOnUse"/></defs><g style="display:inline;fill:#f9bb07;fill-opacity:1"><path d="M45.748 29.774h119.954a23.966 23.966 45 0 1 23.966 23.966v110.566H21.32V54.202a24.43 24.43 135 0 1 24.429-24.428" style="fill:#ffee95;fill-opacity:1;stroke-width:.264583" transform="matrix(1.3814 0 0 1.40121 -16.981 -39.602)"/></g><path d="M47.933 1.487h163.038a34.22 34.22 45 0 1 34.222 34.222v154.348H12.729V36.692A35.204 35.204 135 0 1 47.933 1.487Z" style="display:inline;fill:url(#c);fill-opacity:1;stroke:#00f;stroke-width:0;stroke-dasharray:none;stroke-opacity:0" transform="matrix(1.00146 0 0 1 -.423 -.13)"/><g style="display:inline;fill:#f2f7f8;fill-opacity:1"><path d="M73.71 311.545c-4.315-.604-12.718-3.794-17.149-6.51-4.666-2.86-12.15-10.443-15.014-15.212-1.759-2.929-4.534-9.808-5.462-13.537l-.922-3.708-.156-36.722c-.086-20.197-.096-37.532-.038-38.465l.11-1.755.995 1.279c.957 1.23.996 1.463 1.352 8.098.406 7.57.854 9.666 3.342 15.65 2.267 5.45 5.747 9.965 11.549 14.98 6.284 5.433 13.379 8.341 21.37 8.76 4.775.25 9.87-.731 12.118-2.333 2.534-1.806 4.403-3.84 4.795-5.22.222-.779.384-5.005.386-10.018l.002-8.671-2.262-1.633c-8.276-5.977-15.196-14.237-20.194-24.103-1.542-3.045-2.129-5.976-3.43-17.126-.689-5.912-.636-6.827 1.167-20.303.701-5.243 1.356-10.328 1.454-11.299.166-1.644-.064-2.287-3.345-9.357-4.019-8.658-8.843-21.918-9.927-27.28-1.27-6.285-3.26-19.425-3.262-21.523-.001-2.982 1.13-5.595 3.187-7.364 2.13-1.832 3.728-3.693 6.706-3.18l1.361.236 19.72 7.934c10.872 4.374 20.258 8.878 21.187 9.27l1.69.71 5.908-2.674c8.284-3.749 7.933-3.63 15.996-5.371 16.53-3.568 18.422-3.739 33.511-3.027 6.23.294 7.058.416 11.94 1.764 8.599 2.373 12.867 3.825 19.461 6.617 5.918 2.507 6.318 2.625 7.418 2.202 2.858-1.101 21.933-9.277 30.54-13.09 11.463-5.078 12.486-5.3 16.009-3.468 2.71 1.41 4.46 3.315 5.472 5.955.713 1.86.733 2.235.353 6.737-1.093 12.968-4.502 25.92-10.594 40.255-1.197 2.816-2.701 6.153-3.344 7.415-2.407 4.732-2.513 5.224-1.872 8.72.314 1.71.856 5.89 1.204 9.289.801 7.822.91 24.86.177 28.071-2.607 11.444-6.897 19.432-14.485 26.964-2.115 2.1-5.23 4.82-6.921 6.041l-3.076 2.222-.229 2.16c-.126 1.188-.248 5.121-.271 8.74-.048 7.45.311 9.231 2.324 11.526 1.373 1.565 4.176 3.14 6.805 3.823 2.49.647 9.654.63 12.873-.031 12.281-2.522 23.242-11.844 28.739-24.444 1.878-4.305 2.374-6.786 2.744-13.73.257-4.814.496-6.708.971-7.68.347-.71 1.192-1.504 1.196-1.342.5 19.797.098 70.764-.359 74.76-1.175 10.282-7.111 21.687-14.84 28.514-6.615 5.841-13.968 9.453-22.716 11.158-3.72.725-4.281.73-78.874.687-42.144-.025-76.121-.183-77.39-.36z" style="display:inline;fill:#222;fill-opacity:1;stroke-width:.357429" transform="translate(-22.759 -57.158)"/></g><g style="display:inline;fill:#3e4b51;fill-opacity:1"><path d="M61.523 84.178c-.34.684-.566 1.39-.453 2.405s.453 6.665.679 7.415 1.085 6.18 1.311 6.842 1.606 7.04 1.9 7.768 2.261 7.327 2.6 8.165c.34.839 2.963 7.305 3.28 7.79s1.627 2.913 1.99 3.178c.361.265 2.419-2.516 2.577-3.023s-1.244-3.84-1.741-4.943c-.498-1.104-2.94-9.159-3.256-9.931-.317-.773-1.47-4.988-1.651-5.959s-.882-3.023-.927-3.818-.023-1.589.226-2.052.452-.883.995-1.082c.543-.198 5.789-.066 6.218-.088S61.952 84.111 61.952 84.111m179.803.584c.192.359.575 1.607.511 2.668s-1.488 10.475-1.624 11.314c-.136.838-3.663 14.124-3.935 15.227-.271 1.104-2.759 7.548-3.21 8.607-.453 1.06-1.539 3.62-2.488 4.458s-.95 1.5-1.448.662c-.497-.839-1.537-2.516-1.266-3.354.272-.84 2.94-7.636 3.302-8.916.361-1.28 1.9-6.71 2.216-7.857s1.583-6.135 1.628-7.062.271-3.487-.498-3.53c-.768-.045-5.653.043-6.376-.177s2.442-4.59 2.623-4.767c.18-.177 8.547-6.62 8.547-6.62m-13.861 58.636c-1.448.132-2.488.287-3.28.772-.79.486-1.967 1.369-2.69 1.898-.724.53-.928.795-1.131 1.236-.204.441 3.188-1.61 3.595-1.743s1.154-.64 2.126-.508c.972.133 1.13.441 1.628.486s1.29-.883.837-1.39c-.452-.508-.452-.486-.452-.486m-148.877-.073c1.447.132 2.487.286 3.279.772s1.967 1.368 2.69 1.898c.724.53.928.794 1.131 1.236.204.441-3.188-1.611-3.595-1.744-.407-.132-1.153-.64-2.126-.507-.972.132-1.13.441-1.628.485-.497.044-1.289-.882-.837-1.39.453-.508.453-.486.453-.486m-1.508 29.671c.096.921.112 2.59.192 3.153.08.561 1.12 6.912 1.63 8.91.513 1.997 2.943 7.116 3.583 8.364s3.581 5.93 4.733 6.991c1.15 1.061 4.157 3.995 5.628 4.807 1.471.811 7.292 5.056 8.379 5.43 1.087.375 3.134 1.685 4.093 1.623s.64-.999-.703-2.871c-1.343-1.873-3.39-4.432-3.39-5.306s.51-2.15 1.211-2.305c.701-.154 1.786-.11 2.442.53s1.741 2.317 2.216 2.957 3.8 5.363 4.387 6.356c.588.993 3.46 6.157 4.048 7.724s3.03 7.835 3.483 8.761c.452.927 4.919 10.558 5.878 11.806s1.919 2.746 3.646 3.808c1.727 1.06 3.517 1.747 6.268 1.248s9.53-1.81 10.49-2.185c.959-.374 2.43-6.866 1.854-7.428-.576-.561-10.298 1.748-12.536.874-2.239-.874-5.565-5.867-6.844-8.302s-9.594-18.289-9.594-18.289-.067.593-.813 1.1-1.922 1.523-2.736 1.104c-.815-.42-2.465-2.119-3.144-3.73-.678-1.61-5.676-8.717-6.196-9.357s-1.243-1.434-1.063-2.251.656-2.119 1.29-2.185a14 14 0 0 0 1.922-.353c.384-.11-4.478-1.192-4.478-1.192s-3.663.42-4.274 1.236c-.61.817-1.424 1.037-2.555-.596-1.13-1.633-11.465-14.388-12.143-15.183s-5.292-5.032-5.835-5.076l-.542-.044m152.204-2.061c.108 1.274.265 4.58.185 5.141-.08.562-1.119 6.913-1.63 8.91-.512 1.998-2.943 7.116-3.582 8.365-.64 1.248-3.582 5.93-4.733 6.99-1.152 1.062-4.158 3.996-5.629 4.807s-7.291 5.056-8.379 5.43c-1.087.375-3.134 1.686-4.093 1.624-.96-.063-.64-1 .704-2.872s3.39-4.431 3.39-5.305-.51-2.15-1.212-2.305c-.7-.154-1.786-.11-2.442.53s-1.741 2.317-2.216 2.957-3.8 5.363-4.387 6.356c-.588.993-3.46 6.157-4.048 7.724s-3.03 7.834-3.482 8.761-4.92 10.557-5.879 11.806c-.96 1.248-1.918 2.746-3.645 3.807s-3.518 1.748-6.268 1.249c-2.75-.5-9.53-1.81-10.49-2.185s-2.43-6.866-1.855-7.428 10.298 1.748 12.536.874c2.239-.874 5.565-5.868 6.844-8.302 1.28-2.434 9.594-18.289 9.594-18.289s.067.592.814 1.1 1.922 1.523 2.736 1.103 2.465-2.118 3.143-3.73c.678-1.61 5.676-8.716 6.196-9.356s1.244-1.435 1.063-2.251c-.181-.817-.656-2.119-1.29-2.185a14 14 0 0 1-1.921-.353c-.385-.11 4.477-1.192 4.477-1.192s3.664.42 4.274 1.236 1.425 1.037 2.555-.596 11.284-15.029 11.963-15.823 4.726-4.882 5.156-5.208l.814-.618" style="fill:#3e4b51;fill-opacity:1;stroke-width:.363849" transform="translate(-22.759 -57.158)"/><path d="M140.963 206.233c.158.732.452 1.895 1.221 2.24.769.344 4.256 1.448 5.884 1.62s7.37.267 8.634.188c1.053-.065 3.896-.968 4.213-1.055.316-.086 1.125-1.37 1.464-2.36.34-.991-20.941-.891-20.941-.891" style="fill:#3e4b51;fill-opacity:1;stroke-width:.508255" transform="translate(-22.759 -57.158)"/><path d="M81.76 101.22c1.598 1.936.127 2.03 2.653 4.713 2.527 2.684 8.859 7.959 9.626 8.084.768.124 3.198-2.185 2.687-2.716-.512-.53-13.144-10.455-13.144-10.455m137.872.375c-1.6 1.935-.128 2.028-2.655 4.712s-8.858 7.959-9.626 8.084c-.767.124-3.198-2.185-2.686-2.716.512-.53 13.144-10.455 13.144-10.455" style="fill:#666;fill-opacity:1;stroke-width:.363849" transform="translate(-22.759 -57.158)"/></g><g style="display:inline;fill:#9da6ad;fill-opacity:1"><path d="M65.932 88.04c.136.176 5.427 4.987 6.06 5.826.634.838 5.473 4.987 6.016 5.385.542.397 2.442 1.72 3.166 1.986.723.265 2.125.75 2.758 1.015s11.171 9.887 11.397 10.02-3.89 5.34-4.341 6.09c-.453.75-2.985 4.458-2.985 4.767s1.99 1.5 2.623 1.854c.633.353 4.206 1.986 4.93 2.869.723.882 1.13 1.191 1.22 2.56s.227 2.162-.406 2.913c-.634.75-1.855 2.295-3.166 2.516-1.312.22-2.533.397-3.483-.045-.95-.44-1.99-1.103-2.442-1.942-.452-.838-.86-2.869-1.311-3.619-.453-.75-1.403-1.942-1.945-2.03-.543-.089-1.04-.177-1.447.927-.408 1.103-3.709 6.841-3.709 7.415s-.226.662.588 1.28 4.251 1.81 4.93 2.471c.678.663 2.26 1.987 2.713 2.605.452.617 2.397 2.736 3.12 3.354s3.031 2.516 3.845 2.869 1.628.794 2.126.794c.497 0 3.373-.74 4.748-1.015 2.399-.48 4.927-.422 6.464-.466s2.582.599 2.717-.196-.135-2.34-.814-3.796-1.9-4.193-1.99-5.031-.045-2.715.407-3.2c.453-.486 1.516-1.39 2.601-1.369 1.085.022 2.397.11 2.917 1.104.52.993 3.98 10.791 4.206 11.917s-.022 2.097.34 2.582c.361.486 2.768 1.196 4.725 2.295 3.224 1.81 6.19 3.983 7.101 5.142 2.493 3.17 4.208 4.907 4.93 6.82 1.462 3.873 2.116 5.296 2.804 10.725.683 5.4 2.94 24.231 3.075 26.35s.342 3.992.662 4.522 5.98 1.124 7.771 1.124 13.08.312 13.432-.343c.351-.656.575-2.497.64-3.09.063-.593 1.374-10.112 1.502-10.955s.975-10.564 1.6-15.605c.563-4.559.557-5.974 1.534-9.425 1.085-3.833 2.787-5.72 4.67-7.865 3.565-4.064 3.814-4.117 6.779-6.18 2.417-1.68 6.478-3.162 6.704-3.294.227-.133 1.018-4.348 1.222-4.79.203-.44 1.582-4.545 1.809-5.207s.746-2.362.95-2.693.812-2.18 1.42-2.539 1.63-.936 2.478-.764c.847.171 1.471.327 1.999.89.527.56.959 1.934.767 2.714s-1.695 5.056-1.823 5.509c-.128.452-.911 3.355-1.007 3.839-.096.483-.144.92-.112 1.014s3.398-.426 6.604-.11c2.761.273 5.277 1.312 6.076 1.436.8.125 2.43-.343 3.934-1.28 1.503-.935 3.933-2.62 5.468-4.493s2.782-3.465 3.582-3.87 2.494-1.062 3.326-1.467c.831-.406 1.855-.656 2.015-1.342.16-.687-.032-1.124-.544-1.904s-3.262-7.116-3.646-7.272-1.151-.437-1.503.062c-.352.5-.783.562-1.071 1.249-.288.686-1.12 2.543-1.295 3.012-.176.468-.752 1.872-1.2 2.247s-.591.608-1.183.764-1.55.375-2.414.281-1.823-.25-2.191-.452c-.368-.203-1.455-1.015-1.727-1.498s-.751-.89-.767-1.561-.336-3.012.048-3.402c.383-.39 1.982-1.623 2.75-1.997.767-.375 3.981-1.998 4.413-2.294s1.327-.858 1.391-1.202-1.439-2.98-1.663-3.261-3.31-4.572-3.518-4.869-2.254-2.934-2.318-3.121 4.253-4.057 5.085-4.65 5.948-4.713 6.332-4.963.48-.749 1.055-.78c.576-.031 1.919-.655 2.814-1.155.896-.499 4.158-3.214 4.99-4.213.83-.999 8.41-6.96 8.826-7.46.415-.498 1.055-1.778 1.087-1.965s-37.195 18.007-37.195 18.007-1.831 2.692-1.876 2.869c-.046.176-1.29 2.383-1.651 2.758-.362.376-1.628 1.324-1.832 1.369-.203.044-1.198.198-1.809-.11-.61-.31-1.04-.508-1.244-.64-.203-.133-1.085-1.016-1.198-1.28-.113-.266-.543-1.082-1.063-1.28-.52-.2-1.47-.177-1.741-.111s-7.983 2.847-8.254 3.399c-.271.551-5.224 10.659-5.608 10.703-.385.044-1.312 0-1.741.198-.43.2-.52.376-.882.64-.362.265-6.558 4.59-7.123 4.922-.566.33-4.998 1.06-5.88 1.081-.882.022-18.249-.11-18.701-.33-.452-.222-2.691-1.104-3.256-1.546-.566-.441-5.382-4.435-5.767-4.524-.384-.088-2.08.133-2.284-.198s-3.392-7.04-3.686-7.504-1.809-3.553-2.306-3.73c-.498-.176-8.186-3.53-8.638-3.354-.453.177-1.538 1.015-2.194 1.7-.656.684-1.492 1.92-2.329 1.942s-1.975.185-2.33-.133c-2.26-2.03-3.391-6.201-3.572-6.488" style="fill:#9da6ad;fill-opacity:1;stroke-width:.363849" transform="translate(-22.759 -57.158)"/><path d="M79.41 162.985a1245 1245 0 0 1 4.138 3.42c.18.155 6.06 4.613 6.354 4.768s2.284 1.059 2.409 1.18c.124.122.395.618.508.971s.713 2.637.848 2.946c.136.31 1.753 3.421 2.07 3.862s2.758 3.3 3.2 3.653c.44.353 5.272 3.7 6.008 4.012s6.012 1.061 7.227 1.217 5.948-.28 6.716-.468c.767-.187 6.971-1.56 7.483-1.623s1.983 1.935 1.95 2.31c-.031.374 2.463 7.708 2.591 8.02.128.313 4.893 13.452 5.213 13.92s5.82 10.174 6.108 10.549.64 1.498 1.503 1.873c.864.374 5.405.187 5.597.187s9.626.156 10.361-.063c.736-.218 2.974-4.088 3.23-4.4s4.094-7.24 4.317-7.771c.224-.531 2.943-7.74 3.007-8.084.063-.343 4.093-11.672 4.285-12.359s1.247-3.59 1.567-3.776c.32-.188 1.63-.344 2.302.03.672.375 4.126.937 4.35 1.03.224.094 4.797.812 5.66.812s4.765-.218 5.82-.343 3.87-.656 4.318-.75 4.19-2.371 4.445-2.62c.256-.25 3.742-3.87 4.67-4.994.926-1.124 2.698-6.342 2.822-6.784.125-.441.294-.949.464-1.037s4.16-2.626 4.907-3.178c.746-.551 3.188-2.14 3.595-2.582s1.414-1.247 1.617-1.357 2.262-1.688 2.397-1.754c.136-.067 1.233-.85 1.764-.883s1.402.11 1.741.496c.34.387.826 2.13.826 2.538 0 .409.43 5.927.43 6.208 0 .28-1.024.873-1.76 1.779-.735.905-5.053 5.118-5.724 6.18-.672 1.06-4.701 6.49-5.597 8.145-.895 1.654-2.366 4.057-3.422 5.306-1.055 1.248-2.462 2.746-3.357 3.589-.896.842-1.248 1.217-1.408.468s.064-1.842-1.726-2.216-4.51-.312-5.66-.125c-1.152.187-2.463-.187-3.455.53-.991.719-2.686 3.122-3.23 4.183-.543 1.061-5.436 10.424-5.82 11.672s-5.884 12.453-6.492 13.64c-.608 1.185-2.11 4.306-2.558 5.398-.448 1.093-1.503 3.433-2.175 4.401-.672.967-1.151 2.185-2.718 2.778s-1.823.811-3.934.749c-2.11-.063-7.995-.468-9.594-.999s-1.407-1.248-2.526-1.498c-1.12-.25-9.594-.53-10.234-.063-.64.469-.16.718-1.12 1.093-.958.374-10.2 1.591-11 1.529s-2.207-.062-3.134-.437c-.928-.374-2.303-1.03-2.75-1.81s-5.82-11.61-6.3-12.578c-.48-.967-5.853-11.953-6.173-12.952s-3.294-6.679-3.645-7.428c-.352-.749-3.774-7.24-4.83-7.615-1.055-.374-6.076-1.124-6.939-.967-.863.156-2.303.093-3.23.905-.927.811-1.247 1.872-1.215 2.216.032.343-2.207-1.936-2.495-2.435-.287-.5-3.006-2.934-3.453-3.62-.448-.687-2.335-3.59-3.039-4.744-.703-1.155-3.006-4.557-3.55-5.275-.543-.717-3.485-4.182-4.06-4.681-.576-.5-1.44-1.373-2.303-1.81-.864-.437-1.887-1.03-2.047-1.061-.16-.032-.064-2.31-.032-2.903s.128-5.118.352-5.992.575-2.091.863-2.372 1.056-.75 1.503-.687c.448.063.96.312 1.169.53zm46.583-61.263c1.312.927 2.578 1.413 3.573 2.516.995 1.104 1.854 1.898 2.85 4.281.994 2.384 2.894 6.4 3.436 7.636.543 1.236 1.086 3.796 2.307 4.679s2.804 2.03 5.291 2.295 16.644.132 17.458-.177 2.985-.618 4.025-2.206c1.04-1.59 2.17-3.355 2.85-5.076.678-1.722 2.532-5.517 3.12-6.974s1.583-3.001 2.442-3.796 3.12-2.604 3.844-3.134-8.774-3.928-11.17-4.457c-2.398-.53-16.78-1.236-19.493-1.148-2.714.088-9.317.839-10.855 1.324-1.537.486-8.91 2.957-8.91 2.957" style="fill:#9da6ad;fill-opacity:1;stroke-width:.363849" transform="translate(-22.759 -57.158)"/></g><g style="display:inline;fill:#fcfdfe;fill-opacity:1"><path d="M62.088 83.979c.95.309 43.01 19.73 43.282 20.038.271.31.246 2.603.246 2.603s.128 1.872.304 2.185.272 1.014.655 1.404c.384.39.72 1.061 1.072 1.124.352.062 1.695.124 2.063-.078.367-.203 1.854-1.733 2.094-2.06.24-.328 1.695-1.95 2.735-1.764 1.039.188 8.906 2.95 9.514 3.605.607.656 5.228 10.908 5.516 11.22s.8-.406 1.407-.062c.608.343 6.204 4.962 7.995 5.773 1.791.812 7.292.687 7.292.687s15.958.53 17.109-.031c1.151-.562 3.87-2.029 5.468-3.464 1.6-1.436 2.527-2.778 3.039-2.747.511.031 1.63.437 1.95-.125s4.893-10.798 5.5-11.08c.608-.28 8.763-3.713 9.499-3.713.735 0 1.439.468 1.95.936.512.468 1.632 2.091 2.111 2.403s.96.687 1.535.656c.576-.032 1.152.218 1.631-.25s1.344-1.373 1.535-1.966c.192-.593-.128-4.931.064-5.088.192-.156 42.31-19.662 43.173-19.849.864-.187.768-.125.992.312s-.768.936-1.76 1.623c-.99.687-3.805 2.653-5.916 3.683-2.11 1.03-22.386 10.33-23.153 10.798-.768.469-9.722 4.307-9.818 4.526s.832.5 1.631 1.404c.8.905 5.756 6.024 6.3 6.866.544.843 5.117 6.991 5.725 8.396.607 1.404 1.15 1.498.447 1.873-.703.374-.703-.063-1.439-1.093-.735-1.03-6.364-8.052-7.067-8.739-.704-.686-6.077-6.335-6.652-6.491s-.672.405-1.088 1.154c-.415.75-.8 1.686-1.279 2.248-.48.561-.8.967-1.439 1.186-.64.218-1.295.405-2.159.218s-1.918-.624-2.286-1.061-.672-1.217-1.247-1.67-.848-.796-1.84-.577c-.99.218-7.786 2.762-8.138 3.214-.352.453-5.18 10.33-5.565 10.674-.383.343-1.599.281-1.982.375-.384.093-4.382 3.34-4.797 3.745s-2.719 1.904-4.222 2.185c-1.503.28-3.07.593-4.605.593s-18.164-.188-18.804-.188-3.006-1.03-3.933-1.747c-.928-.718-5.021-4.37-5.693-4.401s-1.919.062-2.27-.219c-.352-.28-1.951-3.932-2.271-4.494s-2.686-6.242-3.774-6.647c-1.087-.406-7.675-3.465-8.442-3.277s-1.408 1.342-1.951 1.872-1.343 1.405-2.079 1.53c-.735.124-1.63.312-2.494.218s-3.262-4.245-3.582-4.588-.8-.187-1.983 1.092-5.98 5.899-7.195 7.428c-1.216 1.53-3.774 4.4-4.286 5.4-.511.998-1.15 2.465-1.503 2.372-.351-.094-1.663-.625-1.407-.968s5.5-8.052 5.98-8.676 7.724-8.302 8.067-8.684c.344-.383.488-.593-1.135-1.264s-11.672-5.463-12.622-5.882c-.95-.42-14.676-7.084-15.716-7.526-1.04-.441-5.699-2.604-6.264-3.112-.565-.507-3.867-3.376-4.364-3.486-.498-.11-.046-.685-.046-.685" style="display:inline;fill:#fcfdfe;fill-opacity:1;stroke-width:.363849" transform="translate(-22.759 -57.158)"/><path d="M118.983 97.53s6.558 4.325 7.19 4.413c.634.088 7.915-2.295 9.182-2.56 1.266-.265 5.654-1.196 9.95-1.589 4.82-.44 9.56-.393 13.658.22 4.57.685 9.317 1.457 10.764 1.855s6.513 1.81 7.146 2.03 7.598-4.193 7.733-4.502c.136-.31-5.336-2.295-6.15-2.56s-9.588-2.472-11.036-2.825c-1.447-.353-11.894-1.457-13.025-1.457-1.13 0-9.226.045-10.13.221-.905.177-8.82 1.104-10.177 1.545s-7.733 1.898-9.226 2.56c-1.492.662-5.382 2.251-5.382 2.251m-35.502 31.072c.379.031 1.395.606 1.779 1.262.383.655.703.936.895 1.622.192.687.338 1.276.64 2.03.24.598.575 1.279 1.15 1.747.577.468 1.019.612 1.76.843.605.188 1.215.405 1.983.062.767-.343 1.726-.655 2.462-1.092s1.94-1.678 2.068-1.927-.085.96-.629 1.49-1.151 1.092-1.727 1.529c-.575.437-1.215.999-2.334 1.061-1.12.063-1.92.125-2.783-.406-.863-.53-1.375-.717-1.79-1.529s-1.28-2.403-1.631-3.246c-.352-.842-.288-1.404-.896-2.184s-1.02-1.226-1.02-1.226" style="fill:#fcfdfe;fill-opacity:1;stroke-width:.363849" transform="translate(-22.759 -57.158)"/><path d="M81.28 164.353c1.9 1.677 2.698 2.273 3.15 2.604s1.515 1.236 2.442 1.898 2.646 2.053 3.37 2.45c.723.397 1.537.75 1.967.971s-.882-.243-1.741-.22c-.86.021-1.267.375-1.086.992.181.618 1.493 3.576 2.148 4.613.656 1.037 3.008 3.994 4.636 5.076s6.31 4.612 10.81 5.34c4.5.729 5.63.95 7.823.817s7.282-1.037 8.413-1.413c1.13-.375 3.889-1.147 4.296-1.081s.837 1.677.837 1.677 3.233 9.755 3.573 10.66 2.374 7.348 2.826 8.231c.453.883 2.985 6.841 3.641 7.812s2.894 4.502 3.37 5.341c.474.839 1.56 2.98 2.012 3.178.452.199 6.739.176 8.073.22s7.394.023 7.756-.043c.362-.067 1.447-1.435 1.9-2.428s3.392-5.672 3.844-6.554 1.945-3.818 2.442-5.076 2.782-7.857 3.234-9.093 2.465-7.26 2.872-8.474 1.65-5.296 1.764-5.407c.113-.11 6.58 1.59 7.62 1.788s4.161.662 5.586.684c1.424.022 5.517-.265 7.372-.773 1.854-.507 6.4-1.986 8.208-3.244 1.81-1.258 6.083-4.546 6.58-5.34a95 95 0 0 0 2.081-3.531c.52-.95 1.176-2.251 1.312-2.516.135-.265.814-1.721.045-1.721s-3.166 1.257-3.347 1.302c-.18.044-.316-.353-.113-.464.204-.11 5.36-3.685 5.45-3.707s4.025-2.87 4.432-3.222c.407-.354-.746 1.213-1.085 1.92-.34.706-.837 2.802-1.176 3.707-.34.905-1.922 4.789-2.555 5.76s-2.646 4.745-4.817 6.599c-2.171 1.853-6.174 4.855-9.837 5.892s-6.4 1.876-9.904 1.81c-3.506-.067-6.174-.42-8.073-.905s-5.586-1.92-6.016-1.81-1.424 3.266-1.673 4.06c-.249.795-3.708 10.24-4.025 11.145s-3.822 8.673-4.364 9.6c-.543.927-2.397 4.745-3.098 5.804s-3.166 4.966-3.664 5.209c-.497.242-6.196.22-7.507.198-1.312-.022-9.272.331-9.634-.132-.361-.464-5.223-7.923-5.562-8.497s-3.867-7.062-4.23-7.878c-.36-.817-4.567-12.447-4.748-12.977-.18-.53-2.193-6.2-2.374-6.444-.181-.242-4.116.95-4.93 1.082s-4.432 1.103-7.417 1.236c-2.985.132-6.264-.177-7.643-.442s-6.015-1.743-7.282-2.45c-1.266-.706-4.952-3.067-5.517-3.619-.566-.551-3.392-3.332-4.184-4.458-.791-1.125-2.94-5.362-3.211-6.068-.271-.707-1.65-4.569-1.967-5.143s-.792-1.81-1.154-2.273-2.272-2.22-2.372-2.418l-.106-.213" style="display:inline;fill:#fcfdfe;fill-opacity:1;stroke-width:.363849" transform="translate(-22.759 -57.158)"/><path d="M218.685 129.065c-.385.729-.543.685-.837 1.523-.294.839-.588 1.148-.724 1.677s-.158.861-.452 1.545-.724 1.633-2.103 2.251-3.55 1.258-5.065.155c-1.516-1.104-2.51-1.523-2.782-2.759-.271-1.236-.249-2.229-.271-2.626s.294 1.567.791 2.405c.498.84 1.583 2.03 2.442 2.274.86.242 2.307.485 3.212.242.904-.242 1.786-.309 2.26-1.081.476-.773 1.086-1.898 1.403-2.692s.922-2.392 1.108-2.627c.44-.554.887-.926 1.064-1 .255-.106.116 0 .116 0" style="fill:#fcfdfe;fill-opacity:1;stroke-width:.363849" transform="translate(-22.759 -57.158)"/><path d="M102.13 226.216c1.855 1.217 2.495 1.124 2.687 2.59.191 1.468.447 5.587-.128 6.149-.576.562-1.631.843-2.175.375-.544-.469-.831-.5-1.023-1.374s-.128-6.46-.032-6.99.288-.875.288-.875m100.22.125c-1.854 1.217-2.494 1.124-2.686 2.59-.192 1.468-.447 5.587.128 6.149.576.562 1.631.843 2.175.375.544-.469.831-.5 1.023-1.374s.128-6.46.032-6.99a3 3 0 0 0-.288-.875" style="fill:#ffee95;fill-opacity:1;stroke-width:.363849" transform="translate(-22.759 -57.158)"/></g><g style="display:inline;fill:#fcfbff;fill-opacity:1"><path d="M100.983 156.806c2.804.485 9.226 1.015 11.352 1.854 2.125.838 6.24 2.913 7.462 4.193s2.94 3.09 3.799 5.031c.86 1.942 2.804 7.592 2.804 7.99 0 .396-5.156 2.647-5.88 2.824-.723.177-2.26.927-5.11.706-2.85-.22-5.789-.883-7.417-1.898s-3.409-1.72-5.518-4.722c-1.281-1.825-2.491-4.99-2.578-6.4-.178-2.91-.33-5.583.272-7.769l.194-.706" style="fill:#ffee95;fill-opacity:1;stroke-width:.363849" transform="translate(-22.759 -57.158)"/><path d="M114.29 159.531c1.2.442 2.307 1.203 2.827 1.479.645.342.61.287 1.934 1.214 1.118.784.956.942.983 1.957.007.25-.154 2.104-.531 2.776-.284.508-.772 1.13-1.832 1.722-.688.384-1.22.706-2.306.706s-1.626-.132-2.508-.485c-.882-.354-1.9-1.475-2.172-2.137-.271-.662-.516-2.624-.266-3.294.351-.943.76-1.873 1.325-2.38.565-.508 1.488-1.158 2.015-1.392l.249-.11" style="display:inline;fill:#fff;fill-opacity:1;stroke-width:.363849" transform="translate(-22.759 -57.158)"/></g><g style="display:inline;fill:#fcfbff;fill-opacity:1"><path d="M10.771 156.806c2.804.485 9.226 1.015 11.352 1.854 2.126.838 6.241 2.913 7.462 4.193s2.94 3.09 3.8 5.031c.859 1.942 2.803 7.592 2.803 7.99 0 .396-5.156 2.647-5.88 2.824-.723.177-2.26.927-5.11.706-2.849-.22-5.789-.883-7.417-1.898s-3.409-1.72-5.518-4.722c-1.28-1.825-2.49-4.99-2.577-6.4-.179-2.91-.33-5.583.271-7.769l.194-.706" style="fill:#ffee95;fill-opacity:1;stroke-width:.363849" transform="matrix(-1 0 0 1 190.777 -57.158)"/><path d="M24.079 159.531c1.198.442 2.307 1.203 2.827 1.479.644.342.61.287 1.933 1.214 1.119.784.957.942.983 1.957.007.25-.154 2.104-.53 2.776-.285.508-.772 1.13-1.832 1.722-.688.384-1.222.706-2.307.706s-1.626-.132-2.508-.485c-.882-.354-1.9-1.475-2.172-2.137-.271-.662-.515-2.624-.266-3.294.352-.943.76-1.873 1.325-2.38.566-.508 1.488-1.158 2.015-1.392l.25-.11" style="display:inline;fill:#fff;fill-opacity:1;stroke-width:.363849" transform="matrix(-1 0 0 1 190.777 -57.158)"/></g><text xml:space="preserve" x="62.852" y="251.303" style="font-size:69.8592px;text-align:start;writing-mode:lr-tb;direction:ltr;text-anchor:start;display:inline;fill:#fff;fill-opacity:1;stroke-width:.363849" transform="scale(1.01226 .98789)"><tspan x="62.852" y="251.303" style="font-style:normal;font-variant:normal;font-weight:400;font-stretch:normal;font-size:69.8592px;font-family:&quot;Segoe UI Symbol&quot;;-inkscape-font-specification:&quot;Segoe UI Symbol&quot;;stroke-width:.363849">e6ai</tspan></text></svg>